G04 EAGLE Gerber RS-274X export*
G75*
%MOMM*%
%FSLAX34Y34*%
%LPD*%
%INTop Copper*%
%IPPOS*%
%AMOC8*
5,1,8,0,0,1.08239X$1,22.5*%
G01*
%ADD10C,1.524000*%
%ADD11C,1.700000*%
%ADD12R,1.950000X1.950000*%
%ADD13C,1.950000*%
%ADD14C,2.000000*%
%ADD15C,1.676400*%
%ADD16P,1.429621X8X22.500000*%
%ADD17P,1.429621X8X202.500000*%
%ADD18P,1.429621X8X112.500000*%
%ADD19C,2.540000*%
%ADD20C,1.016000*%
%ADD21C,5.080000*%
%ADD22C,1.778000*%

G36*
X81315Y10176D02*
X81315Y10176D01*
X81551Y10183D01*
X81633Y10196D01*
X81714Y10201D01*
X81946Y10245D01*
X82181Y10282D01*
X82260Y10305D01*
X82340Y10320D01*
X82566Y10393D01*
X82793Y10459D01*
X82868Y10491D01*
X82946Y10517D01*
X83161Y10618D01*
X83378Y10711D01*
X83449Y10753D01*
X83523Y10788D01*
X83723Y10915D01*
X83927Y11035D01*
X83992Y11085D01*
X84061Y11129D01*
X84244Y11280D01*
X84431Y11424D01*
X84489Y11482D01*
X84552Y11534D01*
X84715Y11707D01*
X84882Y11874D01*
X84933Y11939D01*
X84989Y11998D01*
X85128Y12190D01*
X85274Y12377D01*
X85316Y12447D01*
X85364Y12513D01*
X85478Y12721D01*
X85599Y12924D01*
X85632Y13000D01*
X85672Y13071D01*
X85759Y13291D01*
X85853Y13509D01*
X85877Y13587D01*
X85907Y13664D01*
X85966Y13893D01*
X86033Y14120D01*
X86046Y14201D01*
X86066Y14280D01*
X86096Y14515D01*
X86134Y14749D01*
X86137Y14831D01*
X86147Y14912D01*
X86148Y15149D01*
X86156Y15386D01*
X86148Y15467D01*
X86148Y15550D01*
X86119Y15784D01*
X86097Y16020D01*
X86080Y16100D01*
X86070Y16182D01*
X86011Y16411D01*
X85960Y16642D01*
X85933Y16720D01*
X85912Y16799D01*
X85826Y17020D01*
X85746Y17243D01*
X85709Y17316D01*
X85679Y17392D01*
X85566Y17600D01*
X85459Y17811D01*
X85413Y17879D01*
X85374Y17951D01*
X85235Y18143D01*
X85102Y18339D01*
X85049Y18400D01*
X85000Y18468D01*
X84823Y18657D01*
X84670Y18832D01*
X81830Y21672D01*
X80075Y25908D01*
X80075Y30492D01*
X81830Y34728D01*
X85072Y37970D01*
X89308Y39725D01*
X113892Y39725D01*
X118128Y37970D01*
X121370Y34728D01*
X123125Y30492D01*
X123125Y25908D01*
X121370Y21672D01*
X118530Y18832D01*
X118373Y18654D01*
X118211Y18482D01*
X118163Y18415D01*
X118109Y18354D01*
X117976Y18158D01*
X117836Y17966D01*
X117797Y17895D01*
X117750Y17827D01*
X117643Y17616D01*
X117528Y17409D01*
X117498Y17332D01*
X117461Y17259D01*
X117381Y17037D01*
X117293Y16816D01*
X117273Y16737D01*
X117245Y16660D01*
X117193Y16429D01*
X117134Y16200D01*
X117123Y16118D01*
X117105Y16038D01*
X117083Y15803D01*
X117053Y15568D01*
X117053Y15485D01*
X117045Y15404D01*
X117052Y15168D01*
X117052Y14930D01*
X117062Y14849D01*
X117064Y14767D01*
X117101Y14533D01*
X117130Y14298D01*
X117151Y14219D01*
X117163Y14138D01*
X117229Y13910D01*
X117288Y13681D01*
X117318Y13604D01*
X117340Y13526D01*
X117434Y13308D01*
X117521Y13088D01*
X117560Y13016D01*
X117593Y12941D01*
X117712Y12737D01*
X117826Y12529D01*
X117875Y12462D01*
X117916Y12392D01*
X118061Y12204D01*
X118200Y12012D01*
X118256Y11952D01*
X118306Y11888D01*
X118473Y11720D01*
X118635Y11547D01*
X118698Y11494D01*
X118756Y11436D01*
X118942Y11291D01*
X119124Y11139D01*
X119193Y11095D01*
X119258Y11045D01*
X119462Y10924D01*
X119661Y10796D01*
X119735Y10761D01*
X119806Y10719D01*
X120023Y10625D01*
X120237Y10523D01*
X120315Y10498D01*
X120390Y10465D01*
X120617Y10398D01*
X120842Y10324D01*
X120923Y10309D01*
X121002Y10286D01*
X121235Y10248D01*
X121468Y10203D01*
X121548Y10198D01*
X121631Y10185D01*
X121891Y10176D01*
X122122Y10161D01*
X632260Y10161D01*
X632415Y10170D01*
X632570Y10170D01*
X632732Y10190D01*
X632896Y10201D01*
X633048Y10230D01*
X633202Y10249D01*
X633361Y10289D01*
X633522Y10320D01*
X633669Y10368D01*
X633819Y10406D01*
X633972Y10466D01*
X634128Y10517D01*
X634268Y10582D01*
X634412Y10639D01*
X634556Y10718D01*
X634704Y10788D01*
X634835Y10870D01*
X634971Y10945D01*
X635104Y11041D01*
X635243Y11129D01*
X635362Y11227D01*
X635488Y11318D01*
X635607Y11430D01*
X635734Y11534D01*
X635840Y11647D01*
X635953Y11753D01*
X636058Y11879D01*
X636170Y11998D01*
X636262Y12124D01*
X636361Y12243D01*
X636449Y12381D01*
X636545Y12513D01*
X636620Y12649D01*
X636704Y12780D01*
X636774Y12928D01*
X636853Y13071D01*
X636910Y13215D01*
X636977Y13355D01*
X637028Y13511D01*
X637088Y13664D01*
X637127Y13814D01*
X637176Y13961D01*
X637207Y14122D01*
X637248Y14280D01*
X637267Y14434D01*
X637297Y14586D01*
X637307Y14745D01*
X637329Y14912D01*
X637329Y15081D01*
X637339Y15240D01*
X637339Y514860D01*
X637330Y515015D01*
X637330Y515170D01*
X637310Y515332D01*
X637299Y515496D01*
X637270Y515648D01*
X637251Y515802D01*
X637211Y515961D01*
X637180Y516122D01*
X637132Y516269D01*
X637094Y516419D01*
X637034Y516572D01*
X636983Y516728D01*
X636918Y516868D01*
X636861Y517012D01*
X636782Y517156D01*
X636712Y517304D01*
X636630Y517435D01*
X636555Y517571D01*
X636459Y517704D01*
X636371Y517843D01*
X636273Y517962D01*
X636182Y518088D01*
X636070Y518207D01*
X635966Y518334D01*
X635853Y518440D01*
X635747Y518553D01*
X635621Y518658D01*
X635502Y518770D01*
X635376Y518862D01*
X635257Y518961D01*
X635119Y519049D01*
X634987Y519145D01*
X634851Y519220D01*
X634720Y519304D01*
X634572Y519374D01*
X634429Y519453D01*
X634285Y519510D01*
X634145Y519577D01*
X633989Y519628D01*
X633836Y519688D01*
X633686Y519727D01*
X633539Y519776D01*
X633378Y519807D01*
X633220Y519848D01*
X633066Y519867D01*
X632914Y519897D01*
X632755Y519907D01*
X632588Y519929D01*
X632419Y519929D01*
X632260Y519939D01*
X585290Y519939D01*
X585245Y519936D01*
X585199Y519938D01*
X584926Y519916D01*
X584654Y519899D01*
X584609Y519891D01*
X584564Y519887D01*
X584297Y519831D01*
X584028Y519780D01*
X583985Y519766D01*
X583940Y519757D01*
X583682Y519668D01*
X583422Y519583D01*
X583381Y519564D01*
X583338Y519549D01*
X583115Y519439D01*
X582846Y519312D01*
X582799Y519283D01*
X582751Y519259D01*
X581795Y518707D01*
X575011Y516889D01*
X567989Y516889D01*
X561205Y518707D01*
X560249Y519259D01*
X560208Y519279D01*
X560170Y519304D01*
X559923Y519421D01*
X559679Y519542D01*
X559636Y519557D01*
X559594Y519577D01*
X559334Y519662D01*
X559077Y519752D01*
X559033Y519761D01*
X558989Y519776D01*
X558721Y519828D01*
X558454Y519884D01*
X558409Y519888D01*
X558364Y519897D01*
X558115Y519913D01*
X557819Y519938D01*
X557764Y519936D01*
X557710Y519939D01*
X458290Y519939D01*
X458245Y519936D01*
X458199Y519938D01*
X457926Y519916D01*
X457654Y519899D01*
X457609Y519891D01*
X457564Y519887D01*
X457297Y519831D01*
X457028Y519780D01*
X456985Y519766D01*
X456940Y519757D01*
X456682Y519668D01*
X456422Y519583D01*
X456381Y519564D01*
X456338Y519549D01*
X456115Y519439D01*
X455846Y519312D01*
X455799Y519283D01*
X455751Y519259D01*
X454795Y518707D01*
X448011Y516889D01*
X440989Y516889D01*
X434205Y518707D01*
X433249Y519259D01*
X433208Y519279D01*
X433170Y519304D01*
X432923Y519421D01*
X432679Y519542D01*
X432636Y519557D01*
X432594Y519577D01*
X432334Y519662D01*
X432077Y519752D01*
X432033Y519761D01*
X431989Y519776D01*
X431721Y519828D01*
X431454Y519884D01*
X431409Y519888D01*
X431364Y519897D01*
X431115Y519913D01*
X430819Y519938D01*
X430764Y519936D01*
X430710Y519939D01*
X331290Y519939D01*
X331245Y519936D01*
X331199Y519938D01*
X330926Y519916D01*
X330654Y519899D01*
X330609Y519891D01*
X330564Y519887D01*
X330297Y519831D01*
X330028Y519780D01*
X329985Y519766D01*
X329940Y519757D01*
X329682Y519668D01*
X329422Y519583D01*
X329381Y519564D01*
X329338Y519549D01*
X329115Y519439D01*
X328846Y519312D01*
X328799Y519283D01*
X328751Y519259D01*
X327795Y518707D01*
X321011Y516889D01*
X313989Y516889D01*
X307205Y518707D01*
X306249Y519259D01*
X306208Y519279D01*
X306170Y519304D01*
X305923Y519421D01*
X305679Y519542D01*
X305636Y519557D01*
X305594Y519577D01*
X305334Y519662D01*
X305077Y519752D01*
X305033Y519761D01*
X304989Y519776D01*
X304721Y519828D01*
X304454Y519884D01*
X304409Y519888D01*
X304364Y519897D01*
X304115Y519913D01*
X303819Y519938D01*
X303764Y519936D01*
X303710Y519939D01*
X15240Y519939D01*
X15085Y519930D01*
X14930Y519930D01*
X14768Y519910D01*
X14604Y519899D01*
X14452Y519870D01*
X14298Y519851D01*
X14139Y519811D01*
X13978Y519780D01*
X13831Y519732D01*
X13681Y519694D01*
X13528Y519634D01*
X13372Y519583D01*
X13232Y519518D01*
X13088Y519461D01*
X12944Y519382D01*
X12796Y519312D01*
X12665Y519230D01*
X12529Y519155D01*
X12396Y519059D01*
X12257Y518971D01*
X12138Y518873D01*
X12012Y518782D01*
X11893Y518670D01*
X11766Y518566D01*
X11660Y518453D01*
X11547Y518347D01*
X11442Y518221D01*
X11330Y518102D01*
X11238Y517976D01*
X11139Y517857D01*
X11051Y517719D01*
X10955Y517587D01*
X10880Y517451D01*
X10796Y517320D01*
X10726Y517172D01*
X10647Y517029D01*
X10590Y516885D01*
X10523Y516745D01*
X10472Y516589D01*
X10412Y516436D01*
X10373Y516286D01*
X10324Y516139D01*
X10293Y515978D01*
X10252Y515820D01*
X10233Y515666D01*
X10203Y515514D01*
X10193Y515355D01*
X10171Y515188D01*
X10171Y515019D01*
X10161Y514860D01*
X10161Y15240D01*
X10170Y15085D01*
X10170Y14930D01*
X10190Y14768D01*
X10201Y14604D01*
X10230Y14452D01*
X10249Y14298D01*
X10289Y14139D01*
X10320Y13978D01*
X10368Y13831D01*
X10406Y13681D01*
X10466Y13528D01*
X10517Y13372D01*
X10582Y13232D01*
X10639Y13088D01*
X10718Y12944D01*
X10788Y12796D01*
X10870Y12665D01*
X10945Y12529D01*
X11041Y12396D01*
X11129Y12257D01*
X11227Y12138D01*
X11318Y12012D01*
X11430Y11893D01*
X11534Y11766D01*
X11647Y11660D01*
X11753Y11547D01*
X11879Y11442D01*
X11998Y11330D01*
X12124Y11238D01*
X12243Y11139D01*
X12381Y11051D01*
X12513Y10955D01*
X12649Y10880D01*
X12780Y10796D01*
X12928Y10726D01*
X13071Y10647D01*
X13215Y10590D01*
X13355Y10523D01*
X13511Y10472D01*
X13664Y10412D01*
X13814Y10373D01*
X13961Y10324D01*
X14122Y10293D01*
X14280Y10252D01*
X14434Y10233D01*
X14586Y10203D01*
X14745Y10193D01*
X14912Y10171D01*
X15081Y10171D01*
X15240Y10161D01*
X81078Y10161D01*
X81315Y10176D01*
G37*
%LPC*%
G36*
X129055Y49275D02*
X129055Y49275D01*
X122207Y51110D01*
X116068Y54655D01*
X111055Y59668D01*
X107510Y65807D01*
X105675Y72655D01*
X105675Y218925D01*
X107510Y225773D01*
X111055Y231912D01*
X116116Y236973D01*
X116184Y237023D01*
X116366Y237143D01*
X116442Y237209D01*
X116524Y237268D01*
X116683Y237417D01*
X116849Y237560D01*
X116916Y237634D01*
X116989Y237703D01*
X117129Y237871D01*
X117275Y238033D01*
X117332Y238115D01*
X117397Y238193D01*
X117514Y238377D01*
X117639Y238556D01*
X117686Y238645D01*
X117740Y238730D01*
X117833Y238927D01*
X117935Y239120D01*
X117970Y239214D01*
X118013Y239305D01*
X118081Y239513D01*
X118157Y239717D01*
X118180Y239815D01*
X118212Y239911D01*
X118253Y240125D01*
X118303Y240338D01*
X118314Y240437D01*
X118333Y240536D01*
X118347Y240745D01*
X118371Y240971D01*
X118368Y241083D01*
X118375Y241190D01*
X118375Y249729D01*
X120541Y254958D01*
X195142Y329559D01*
X200371Y331725D01*
X216017Y331725D01*
X216254Y331740D01*
X216490Y331747D01*
X216571Y331760D01*
X216653Y331765D01*
X216886Y331809D01*
X217120Y331846D01*
X217198Y331869D01*
X217279Y331884D01*
X217504Y331957D01*
X217732Y332023D01*
X217807Y332055D01*
X217885Y332081D01*
X218099Y332181D01*
X218317Y332275D01*
X218387Y332317D01*
X218462Y332352D01*
X218662Y332478D01*
X218866Y332599D01*
X218930Y332649D01*
X219000Y332693D01*
X219183Y332844D01*
X219370Y332988D01*
X219428Y333046D01*
X219491Y333098D01*
X219653Y333271D01*
X219821Y333438D01*
X219871Y333503D01*
X219928Y333562D01*
X220067Y333754D01*
X220212Y333941D01*
X220254Y334011D01*
X220303Y334077D01*
X220417Y334285D01*
X220538Y334488D01*
X220571Y334564D01*
X220610Y334635D01*
X220698Y334856D01*
X220792Y335073D01*
X220815Y335151D01*
X220846Y335228D01*
X220905Y335457D01*
X220971Y335684D01*
X220984Y335765D01*
X221005Y335844D01*
X221035Y336080D01*
X221073Y336313D01*
X221075Y336395D01*
X221086Y336476D01*
X221086Y336714D01*
X221094Y336950D01*
X221087Y337032D01*
X221087Y337114D01*
X221058Y337349D01*
X221036Y337584D01*
X221018Y337664D01*
X221008Y337746D01*
X220950Y337976D01*
X220899Y338207D01*
X220871Y338284D01*
X220851Y338363D01*
X220764Y338584D01*
X220685Y338807D01*
X220648Y338880D01*
X220618Y338956D01*
X220504Y339165D01*
X220471Y339229D01*
X220471Y346267D01*
X225233Y351029D01*
X231967Y351029D01*
X236729Y346267D01*
X236729Y339228D01*
X236704Y339180D01*
X236590Y338973D01*
X236560Y338896D01*
X236522Y338823D01*
X236442Y338601D01*
X236354Y338380D01*
X236334Y338301D01*
X236306Y338224D01*
X236254Y337993D01*
X236195Y337764D01*
X236185Y337682D01*
X236167Y337602D01*
X236144Y337367D01*
X236114Y337132D01*
X236114Y337049D01*
X236106Y336968D01*
X236113Y336732D01*
X236113Y336494D01*
X236123Y336413D01*
X236126Y336331D01*
X236162Y336098D01*
X236192Y335862D01*
X236212Y335783D01*
X236225Y335702D01*
X236290Y335474D01*
X236349Y335245D01*
X236379Y335169D01*
X236402Y335090D01*
X236495Y334872D01*
X236582Y334652D01*
X236621Y334580D01*
X236654Y334505D01*
X236774Y334301D01*
X236888Y334093D01*
X236936Y334026D01*
X236977Y333956D01*
X237122Y333768D01*
X237261Y333576D01*
X237317Y333517D01*
X237367Y333452D01*
X237534Y333284D01*
X237696Y333111D01*
X237759Y333058D01*
X237817Y333000D01*
X238004Y332855D01*
X238186Y332703D01*
X238255Y332659D01*
X238319Y332609D01*
X238523Y332488D01*
X238723Y332360D01*
X238797Y332325D01*
X238867Y332283D01*
X239084Y332189D01*
X239298Y332087D01*
X239376Y332062D01*
X239451Y332029D01*
X239679Y331962D01*
X239904Y331888D01*
X239984Y331873D01*
X240063Y331850D01*
X240296Y331812D01*
X240529Y331767D01*
X240609Y331762D01*
X240692Y331749D01*
X240951Y331740D01*
X241183Y331725D01*
X298196Y331725D01*
X298351Y331734D01*
X298506Y331734D01*
X298668Y331754D01*
X298832Y331765D01*
X298984Y331794D01*
X299138Y331813D01*
X299297Y331853D01*
X299458Y331884D01*
X299605Y331932D01*
X299755Y331970D01*
X299908Y332030D01*
X300064Y332081D01*
X300204Y332146D01*
X300348Y332203D01*
X300492Y332282D01*
X300640Y332352D01*
X300771Y332434D01*
X300907Y332509D01*
X301040Y332605D01*
X301179Y332693D01*
X301298Y332791D01*
X301424Y332882D01*
X301543Y332994D01*
X301670Y333098D01*
X301776Y333211D01*
X301889Y333317D01*
X301994Y333443D01*
X302106Y333562D01*
X302198Y333688D01*
X302297Y333807D01*
X302385Y333945D01*
X302481Y334077D01*
X302556Y334213D01*
X302640Y334344D01*
X302710Y334492D01*
X302789Y334635D01*
X302846Y334779D01*
X302913Y334919D01*
X302964Y335075D01*
X303024Y335228D01*
X303063Y335378D01*
X303112Y335525D01*
X303143Y335686D01*
X303184Y335844D01*
X303203Y335998D01*
X303233Y336150D01*
X303243Y336309D01*
X303265Y336476D01*
X303265Y336645D01*
X303275Y336804D01*
X303275Y346222D01*
X303263Y346418D01*
X303260Y346614D01*
X303243Y346736D01*
X303235Y346858D01*
X303199Y347050D01*
X303171Y347245D01*
X303139Y347363D01*
X303116Y347484D01*
X303056Y347670D01*
X303004Y347859D01*
X302957Y347973D01*
X302919Y348090D01*
X302836Y348268D01*
X302761Y348448D01*
X302701Y348555D01*
X302648Y348667D01*
X302544Y348832D01*
X302447Y349002D01*
X302373Y349101D01*
X302307Y349205D01*
X302183Y349356D01*
X302065Y349513D01*
X301980Y349601D01*
X301902Y349696D01*
X301759Y349830D01*
X301623Y349971D01*
X301527Y350048D01*
X301438Y350133D01*
X301279Y350248D01*
X301127Y350371D01*
X301022Y350435D01*
X300923Y350508D01*
X300751Y350602D01*
X300584Y350705D01*
X300472Y350756D01*
X300365Y350815D01*
X300183Y350888D01*
X300004Y350969D01*
X299887Y351005D01*
X299772Y351051D01*
X299583Y351100D01*
X299396Y351158D01*
X299275Y351179D01*
X299156Y351210D01*
X298961Y351235D01*
X298769Y351269D01*
X298646Y351275D01*
X298524Y351291D01*
X298327Y351291D01*
X298132Y351301D01*
X298010Y351292D01*
X297886Y351292D01*
X297692Y351268D01*
X297497Y351253D01*
X297376Y351229D01*
X297254Y351214D01*
X297064Y351165D01*
X296873Y351126D01*
X296759Y351087D01*
X296637Y351056D01*
X296439Y350978D01*
X296252Y350915D01*
X294071Y350011D01*
X290129Y350011D01*
X286488Y351520D01*
X283702Y354306D01*
X282193Y357947D01*
X282193Y378653D01*
X283702Y382294D01*
X286488Y385080D01*
X290129Y386589D01*
X294071Y386589D01*
X297712Y385081D01*
X301208Y381584D01*
X301325Y381481D01*
X301434Y381372D01*
X301563Y381271D01*
X301686Y381162D01*
X301814Y381075D01*
X301937Y380980D01*
X302078Y380896D01*
X302213Y380804D01*
X302351Y380734D01*
X302484Y380655D01*
X302635Y380589D01*
X302781Y380515D01*
X302926Y380462D01*
X303069Y380400D01*
X303226Y380354D01*
X303380Y380299D01*
X303531Y380265D01*
X303680Y380221D01*
X303842Y380195D01*
X304002Y380159D01*
X304156Y380145D01*
X304309Y380120D01*
X304473Y380114D01*
X304636Y380099D01*
X304791Y380104D01*
X304946Y380098D01*
X305109Y380113D01*
X305273Y380118D01*
X305426Y380142D01*
X305580Y380156D01*
X305740Y380192D01*
X305902Y380217D01*
X306051Y380260D01*
X306202Y380294D01*
X306357Y380349D01*
X306514Y380394D01*
X306657Y380456D01*
X306803Y380508D01*
X306949Y380581D01*
X307099Y380646D01*
X307233Y380725D01*
X307371Y380795D01*
X307507Y380887D01*
X307648Y380970D01*
X307771Y381065D01*
X307899Y381151D01*
X308019Y381256D01*
X308152Y381360D01*
X308272Y381479D01*
X308392Y381584D01*
X311888Y385080D01*
X315529Y386589D01*
X319471Y386589D01*
X323112Y385080D01*
X326082Y382110D01*
X326258Y381955D01*
X326429Y381794D01*
X326497Y381744D01*
X326560Y381689D01*
X326754Y381557D01*
X326944Y381418D01*
X327018Y381378D01*
X327087Y381331D01*
X327296Y381224D01*
X327502Y381110D01*
X327580Y381079D01*
X327654Y381041D01*
X327876Y380961D01*
X328094Y380874D01*
X328175Y380853D01*
X328254Y380825D01*
X328483Y380774D01*
X328711Y380715D01*
X328794Y380704D01*
X328876Y380686D01*
X329110Y380663D01*
X329342Y380633D01*
X329426Y380633D01*
X329510Y380625D01*
X329744Y380632D01*
X329980Y380632D01*
X330063Y380642D01*
X330147Y380645D01*
X330379Y380681D01*
X330612Y380710D01*
X330693Y380731D01*
X330776Y380744D01*
X331002Y380809D01*
X331229Y380867D01*
X331307Y380897D01*
X331388Y380921D01*
X331604Y381014D01*
X331823Y381099D01*
X331896Y381140D01*
X331973Y381173D01*
X332176Y381292D01*
X332382Y381405D01*
X332450Y381454D01*
X332522Y381496D01*
X332708Y381640D01*
X332898Y381778D01*
X332960Y381835D01*
X333026Y381886D01*
X333192Y382052D01*
X333364Y382212D01*
X333417Y382276D01*
X333477Y382336D01*
X333636Y382539D01*
X333783Y382716D01*
X334569Y383798D01*
X335784Y385013D01*
X337175Y386024D01*
X337821Y386353D01*
X337821Y368300D01*
X337821Y350046D01*
X337764Y350061D01*
X337760Y350062D01*
X337756Y350062D01*
X337458Y350100D01*
X337132Y350142D01*
X337128Y350142D01*
X337124Y350142D01*
X336815Y350143D01*
X336494Y350143D01*
X336491Y350143D01*
X336487Y350143D01*
X336173Y350103D01*
X335862Y350064D01*
X335859Y350064D01*
X335855Y350063D01*
X335549Y349985D01*
X335245Y349907D01*
X335241Y349906D01*
X335238Y349905D01*
X334948Y349790D01*
X334652Y349674D01*
X334649Y349672D01*
X334645Y349671D01*
X334380Y349526D01*
X334093Y349368D01*
X334090Y349366D01*
X334087Y349365D01*
X333839Y349185D01*
X333576Y348995D01*
X333574Y348993D01*
X333571Y348991D01*
X333339Y348774D01*
X333111Y348560D01*
X333109Y348558D01*
X333106Y348555D01*
X332901Y348308D01*
X332703Y348070D01*
X332701Y348067D01*
X332699Y348065D01*
X332527Y347795D01*
X332360Y347534D01*
X332359Y347530D01*
X332357Y347527D01*
X332223Y347243D01*
X332087Y346958D01*
X332086Y346954D01*
X332085Y346951D01*
X331988Y346656D01*
X331888Y346353D01*
X331888Y346349D01*
X331887Y346346D01*
X331825Y346028D01*
X331767Y345727D01*
X331767Y345723D01*
X331766Y345720D01*
X331725Y345084D01*
X331725Y345079D01*
X331725Y345073D01*
X331725Y314671D01*
X329559Y309442D01*
X325558Y305441D01*
X320329Y303275D01*
X318623Y303275D01*
X318428Y303263D01*
X318232Y303260D01*
X318110Y303243D01*
X317987Y303235D01*
X317795Y303199D01*
X317601Y303171D01*
X317482Y303139D01*
X317362Y303116D01*
X317175Y303056D01*
X316986Y303004D01*
X316873Y302957D01*
X316756Y302919D01*
X316578Y302836D01*
X316397Y302761D01*
X316290Y302701D01*
X316179Y302648D01*
X316014Y302544D01*
X315843Y302447D01*
X315745Y302373D01*
X315641Y302307D01*
X315490Y302183D01*
X315333Y302065D01*
X315244Y301980D01*
X315150Y301902D01*
X315015Y301759D01*
X314874Y301623D01*
X314797Y301527D01*
X314713Y301438D01*
X314598Y301279D01*
X314475Y301127D01*
X314410Y301022D01*
X314338Y300923D01*
X314243Y300751D01*
X314141Y300584D01*
X314090Y300472D01*
X314030Y300365D01*
X313958Y300183D01*
X313877Y300004D01*
X313840Y299887D01*
X313795Y299772D01*
X313746Y299583D01*
X313688Y299396D01*
X313666Y299275D01*
X313636Y299156D01*
X313611Y298961D01*
X313576Y298768D01*
X313570Y298646D01*
X313555Y298524D01*
X313554Y298327D01*
X313545Y298132D01*
X313554Y298010D01*
X313554Y297886D01*
X313578Y297692D01*
X313592Y297497D01*
X313617Y297376D01*
X313632Y297254D01*
X313681Y297064D01*
X313720Y296872D01*
X313758Y296759D01*
X313789Y296637D01*
X313867Y296439D01*
X313931Y296252D01*
X314825Y294094D01*
X314825Y290106D01*
X313299Y286421D01*
X310479Y283601D01*
X306794Y282075D01*
X302806Y282075D01*
X299121Y283601D01*
X295997Y286726D01*
X295789Y286909D01*
X295599Y287082D01*
X295603Y287160D01*
X295600Y287201D01*
X295601Y287242D01*
X295576Y287518D01*
X295555Y287795D01*
X295547Y287835D01*
X295543Y287876D01*
X295484Y288147D01*
X295428Y288419D01*
X295415Y288458D01*
X295406Y288498D01*
X295298Y288802D01*
X295217Y289040D01*
X294775Y290106D01*
X294775Y294094D01*
X295669Y296252D01*
X295733Y296438D01*
X295805Y296620D01*
X295836Y296739D01*
X295876Y296855D01*
X295915Y297047D01*
X295964Y297236D01*
X295980Y297358D01*
X296005Y297479D01*
X296020Y297674D01*
X296045Y297868D01*
X296046Y297991D01*
X296055Y298114D01*
X296046Y298310D01*
X296046Y298506D01*
X296031Y298628D01*
X296026Y298750D01*
X295992Y298943D01*
X295968Y299138D01*
X295937Y299257D01*
X295916Y299378D01*
X295859Y299565D01*
X295811Y299755D01*
X295766Y299870D01*
X295730Y299987D01*
X295649Y300166D01*
X295577Y300348D01*
X295518Y300456D01*
X295468Y300568D01*
X295366Y300735D01*
X295272Y300907D01*
X295200Y301007D01*
X295136Y301112D01*
X295013Y301265D01*
X294899Y301424D01*
X294815Y301513D01*
X294738Y301610D01*
X294597Y301746D01*
X294464Y301889D01*
X294369Y301968D01*
X294281Y302054D01*
X294124Y302172D01*
X293974Y302297D01*
X293870Y302363D01*
X293772Y302437D01*
X293602Y302534D01*
X293437Y302640D01*
X293326Y302692D01*
X293219Y302753D01*
X293038Y302829D01*
X292861Y302913D01*
X292744Y302951D01*
X292631Y302998D01*
X292442Y303051D01*
X292256Y303112D01*
X292135Y303135D01*
X292017Y303168D01*
X291823Y303196D01*
X291630Y303233D01*
X291510Y303241D01*
X291386Y303259D01*
X291173Y303263D01*
X290977Y303275D01*
X211196Y303275D01*
X211123Y303271D01*
X211050Y303273D01*
X210805Y303251D01*
X210560Y303235D01*
X210489Y303222D01*
X210416Y303215D01*
X210175Y303162D01*
X209934Y303116D01*
X209865Y303094D01*
X209794Y303078D01*
X209562Y302995D01*
X209328Y302919D01*
X209262Y302888D01*
X209193Y302864D01*
X208974Y302753D01*
X208752Y302648D01*
X208690Y302609D01*
X208625Y302576D01*
X208421Y302439D01*
X208213Y302307D01*
X208157Y302261D01*
X208097Y302220D01*
X207923Y302067D01*
X207722Y301902D01*
X207665Y301841D01*
X207604Y301788D01*
X202262Y296445D01*
X202132Y296298D01*
X201996Y296158D01*
X201922Y296059D01*
X201840Y295967D01*
X201730Y295805D01*
X201612Y295649D01*
X201551Y295542D01*
X201482Y295440D01*
X201393Y295266D01*
X201296Y295096D01*
X201249Y294982D01*
X201193Y294873D01*
X201126Y294688D01*
X201051Y294508D01*
X201018Y294389D01*
X200977Y294273D01*
X200934Y294082D01*
X200882Y293893D01*
X200864Y293772D01*
X200837Y293652D01*
X200819Y293456D01*
X200791Y293263D01*
X200788Y293140D01*
X200777Y293017D01*
X200783Y292822D01*
X200779Y292626D01*
X200792Y292503D01*
X200796Y292380D01*
X200827Y292187D01*
X200848Y291992D01*
X200876Y291873D01*
X200895Y291751D01*
X200950Y291563D01*
X200995Y291372D01*
X201038Y291257D01*
X201072Y291139D01*
X201150Y290959D01*
X201218Y290776D01*
X201276Y290667D01*
X201324Y290554D01*
X201424Y290385D01*
X201515Y290212D01*
X201585Y290111D01*
X201648Y290005D01*
X201768Y289850D01*
X201880Y289689D01*
X201962Y289598D01*
X202038Y289501D01*
X202176Y289362D01*
X202307Y289217D01*
X202401Y289137D01*
X202487Y289050D01*
X202641Y288929D01*
X202790Y288802D01*
X202893Y288734D01*
X202990Y288658D01*
X203158Y288558D01*
X203322Y288450D01*
X203430Y288397D01*
X203538Y288333D01*
X203733Y288248D01*
X203910Y288161D01*
X207609Y286629D01*
X210429Y283809D01*
X211955Y280124D01*
X211955Y276136D01*
X210429Y272451D01*
X207609Y269631D01*
X203924Y268105D01*
X199936Y268105D01*
X196251Y269631D01*
X193431Y272451D01*
X191899Y276150D01*
X191813Y276326D01*
X191736Y276506D01*
X191673Y276612D01*
X191619Y276723D01*
X191512Y276886D01*
X191412Y277055D01*
X191337Y277153D01*
X191269Y277255D01*
X191142Y277404D01*
X191022Y277559D01*
X190936Y277646D01*
X190856Y277740D01*
X190711Y277872D01*
X190573Y278010D01*
X190476Y278086D01*
X190385Y278169D01*
X190224Y278282D01*
X190070Y278402D01*
X189964Y278465D01*
X189864Y278536D01*
X189691Y278627D01*
X189522Y278727D01*
X189409Y278777D01*
X189301Y278834D01*
X189118Y278903D01*
X188938Y278982D01*
X188820Y279016D01*
X188705Y279060D01*
X188515Y279106D01*
X188327Y279161D01*
X188205Y279180D01*
X188086Y279209D01*
X187891Y279231D01*
X187698Y279262D01*
X187575Y279266D01*
X187452Y279280D01*
X187256Y279277D01*
X187061Y279284D01*
X186938Y279273D01*
X186815Y279271D01*
X186621Y279244D01*
X186426Y279226D01*
X186306Y279199D01*
X186184Y279182D01*
X185995Y279131D01*
X185804Y279088D01*
X185689Y279047D01*
X185570Y279015D01*
X185388Y278940D01*
X185204Y278875D01*
X185094Y278819D01*
X184981Y278772D01*
X184810Y278675D01*
X184635Y278587D01*
X184534Y278518D01*
X184427Y278458D01*
X184270Y278340D01*
X184107Y278231D01*
X184017Y278151D01*
X183916Y278076D01*
X183763Y277928D01*
X183615Y277798D01*
X149529Y243712D01*
X149426Y243596D01*
X149316Y243486D01*
X149216Y243357D01*
X149107Y243234D01*
X149020Y243106D01*
X148925Y242984D01*
X148841Y242842D01*
X148749Y242707D01*
X148679Y242569D01*
X148599Y242436D01*
X148534Y242286D01*
X148460Y242139D01*
X148407Y241994D01*
X148345Y241852D01*
X148299Y241694D01*
X148243Y241540D01*
X148209Y241389D01*
X148166Y241240D01*
X148140Y241079D01*
X148104Y240918D01*
X148089Y240764D01*
X148065Y240611D01*
X148059Y240447D01*
X148044Y240284D01*
X148048Y240129D01*
X148043Y239974D01*
X148058Y239811D01*
X148063Y239647D01*
X148087Y239494D01*
X148101Y239340D01*
X148137Y239180D01*
X148162Y239018D01*
X148205Y238869D01*
X148238Y238718D01*
X148294Y238563D01*
X148339Y238406D01*
X148400Y238263D01*
X148452Y238118D01*
X148526Y237971D01*
X148591Y237821D01*
X148670Y237687D01*
X148740Y237549D01*
X148831Y237413D01*
X148915Y237272D01*
X149010Y237149D01*
X149096Y237021D01*
X149201Y236901D01*
X149304Y236768D01*
X149423Y236649D01*
X149529Y236529D01*
X153175Y232882D01*
X153230Y232834D01*
X153280Y232781D01*
X153468Y232624D01*
X153653Y232461D01*
X153713Y232420D01*
X153769Y232373D01*
X153976Y232241D01*
X154180Y232103D01*
X154245Y232070D01*
X154306Y232030D01*
X154529Y231925D01*
X154747Y231813D01*
X154816Y231789D01*
X154882Y231757D01*
X155115Y231681D01*
X155347Y231597D01*
X155418Y231581D01*
X155487Y231558D01*
X155728Y231512D01*
X155968Y231458D01*
X156041Y231451D01*
X156113Y231437D01*
X156344Y231422D01*
X156603Y231397D01*
X156686Y231400D01*
X156767Y231395D01*
X180629Y231395D01*
X185858Y229229D01*
X189859Y225228D01*
X192025Y219999D01*
X192025Y213071D01*
X189859Y207842D01*
X185858Y203841D01*
X180309Y201543D01*
X180096Y201438D01*
X179881Y201341D01*
X179811Y201298D01*
X179737Y201262D01*
X179539Y201133D01*
X179337Y201009D01*
X179273Y200958D01*
X179204Y200913D01*
X179025Y200759D01*
X178839Y200611D01*
X178782Y200552D01*
X178720Y200499D01*
X178560Y200324D01*
X178395Y200154D01*
X178346Y200089D01*
X178291Y200028D01*
X178154Y199834D01*
X178012Y199645D01*
X177971Y199574D01*
X177924Y199507D01*
X177813Y199298D01*
X177695Y199092D01*
X177664Y199016D01*
X177626Y198944D01*
X177542Y198723D01*
X177451Y198504D01*
X177429Y198425D01*
X177400Y198348D01*
X177344Y198118D01*
X177281Y197890D01*
X177270Y197809D01*
X177250Y197729D01*
X177224Y197493D01*
X177190Y197259D01*
X177189Y197178D01*
X177180Y197096D01*
X177183Y196859D01*
X177179Y196622D01*
X177188Y196541D01*
X177189Y196459D01*
X177222Y196224D01*
X177247Y195989D01*
X177266Y195909D01*
X177278Y195828D01*
X177340Y195599D01*
X177394Y195369D01*
X177423Y195292D01*
X177445Y195213D01*
X177535Y194994D01*
X177618Y194772D01*
X177656Y194700D01*
X177688Y194624D01*
X177804Y194418D01*
X177915Y194208D01*
X177962Y194141D01*
X178002Y194070D01*
X178144Y193880D01*
X178279Y193686D01*
X178334Y193625D01*
X178384Y193560D01*
X178548Y193389D01*
X178707Y193214D01*
X178769Y193160D01*
X178826Y193101D01*
X179011Y192952D01*
X179190Y192798D01*
X179258Y192753D01*
X179322Y192701D01*
X179524Y192577D01*
X179721Y192447D01*
X179794Y192411D01*
X179865Y192367D01*
X180101Y192260D01*
X180309Y192157D01*
X185858Y189859D01*
X189859Y185858D01*
X192025Y180629D01*
X192025Y136871D01*
X189859Y131642D01*
X185858Y127641D01*
X180309Y125343D01*
X180097Y125238D01*
X179881Y125141D01*
X179811Y125098D01*
X179737Y125062D01*
X179539Y124932D01*
X179337Y124809D01*
X179273Y124758D01*
X179204Y124713D01*
X179024Y124559D01*
X178839Y124411D01*
X178782Y124352D01*
X178720Y124299D01*
X178561Y124124D01*
X178395Y123954D01*
X178346Y123889D01*
X178291Y123828D01*
X178155Y123635D01*
X178012Y123445D01*
X177971Y123374D01*
X177924Y123307D01*
X177813Y123098D01*
X177695Y122892D01*
X177664Y122817D01*
X177626Y122744D01*
X177542Y122523D01*
X177451Y122304D01*
X177429Y122225D01*
X177400Y122148D01*
X177344Y121918D01*
X177281Y121690D01*
X177270Y121609D01*
X177250Y121529D01*
X177224Y121293D01*
X177190Y121059D01*
X177189Y120978D01*
X177180Y120896D01*
X177183Y120659D01*
X177179Y120422D01*
X177188Y120341D01*
X177189Y120259D01*
X177222Y120024D01*
X177247Y119789D01*
X177266Y119709D01*
X177278Y119628D01*
X177340Y119399D01*
X177394Y119169D01*
X177423Y119092D01*
X177445Y119013D01*
X177535Y118794D01*
X177618Y118572D01*
X177656Y118500D01*
X177687Y118424D01*
X177805Y118218D01*
X177915Y118008D01*
X177962Y117941D01*
X178002Y117870D01*
X178144Y117680D01*
X178279Y117486D01*
X178335Y117425D01*
X178384Y117360D01*
X178547Y117190D01*
X178707Y117014D01*
X178769Y116960D01*
X178826Y116901D01*
X179010Y116753D01*
X179190Y116598D01*
X179259Y116553D01*
X179322Y116502D01*
X179524Y116377D01*
X179721Y116247D01*
X179793Y116211D01*
X179865Y116167D01*
X180102Y116059D01*
X180309Y115957D01*
X185858Y113659D01*
X189859Y109658D01*
X192025Y104429D01*
X192025Y60671D01*
X189859Y55442D01*
X185858Y51441D01*
X180629Y49275D01*
X174971Y49275D01*
X169742Y51441D01*
X165741Y55442D01*
X163819Y60081D01*
X163721Y60282D01*
X163631Y60486D01*
X163581Y60568D01*
X163539Y60654D01*
X163417Y60840D01*
X163301Y61031D01*
X163242Y61106D01*
X163189Y61186D01*
X163045Y61356D01*
X162906Y61531D01*
X162838Y61598D01*
X162776Y61671D01*
X162611Y61821D01*
X162452Y61977D01*
X162375Y62035D01*
X162305Y62100D01*
X162122Y62228D01*
X161945Y62363D01*
X161862Y62411D01*
X161784Y62466D01*
X161587Y62571D01*
X161394Y62683D01*
X161305Y62720D01*
X161221Y62765D01*
X161012Y62844D01*
X160807Y62931D01*
X160715Y62957D01*
X160625Y62991D01*
X160408Y63043D01*
X160193Y63104D01*
X160099Y63118D01*
X160006Y63140D01*
X159784Y63165D01*
X159563Y63198D01*
X159468Y63200D01*
X159373Y63211D01*
X159149Y63208D01*
X158926Y63213D01*
X158831Y63203D01*
X158735Y63202D01*
X158514Y63171D01*
X158292Y63148D01*
X158199Y63126D01*
X158105Y63113D01*
X157889Y63054D01*
X157672Y63004D01*
X157582Y62971D01*
X157490Y62946D01*
X157284Y62861D01*
X157074Y62784D01*
X156989Y62739D01*
X156901Y62703D01*
X156707Y62593D01*
X156509Y62490D01*
X156430Y62436D01*
X156347Y62388D01*
X156168Y62255D01*
X155984Y62128D01*
X155913Y62064D01*
X155836Y62007D01*
X155676Y61852D01*
X155509Y61703D01*
X155447Y61631D01*
X155378Y61565D01*
X155238Y61391D01*
X155091Y61222D01*
X155039Y61144D01*
X154978Y61068D01*
X154850Y60861D01*
X154728Y60677D01*
X154145Y59668D01*
X149132Y54655D01*
X142993Y51110D01*
X136145Y49275D01*
X129055Y49275D01*
G37*
%LPD*%
%LPC*%
G36*
X263871Y36575D02*
X263871Y36575D01*
X258642Y38741D01*
X241941Y55442D01*
X239775Y60671D01*
X239775Y66329D01*
X241941Y71558D01*
X245942Y75559D01*
X251491Y77857D01*
X251704Y77962D01*
X251919Y78059D01*
X251989Y78102D01*
X252063Y78138D01*
X252261Y78267D01*
X252463Y78391D01*
X252527Y78442D01*
X252596Y78487D01*
X252775Y78641D01*
X252961Y78789D01*
X253018Y78848D01*
X253080Y78901D01*
X253240Y79076D01*
X253405Y79246D01*
X253454Y79311D01*
X253509Y79372D01*
X253646Y79566D01*
X253788Y79755D01*
X253829Y79826D01*
X253876Y79893D01*
X253987Y80102D01*
X254000Y80125D01*
X254005Y80118D01*
X254115Y79908D01*
X254162Y79841D01*
X254202Y79770D01*
X254344Y79580D01*
X254479Y79386D01*
X254535Y79325D01*
X254584Y79260D01*
X254747Y79090D01*
X254907Y78914D01*
X254969Y78860D01*
X255026Y78801D01*
X255210Y78653D01*
X255390Y78498D01*
X255459Y78453D01*
X255522Y78402D01*
X255724Y78277D01*
X255921Y78147D01*
X255993Y78111D01*
X256065Y78067D01*
X256302Y77959D01*
X256509Y77857D01*
X262058Y75559D01*
X271104Y66512D01*
X271159Y66464D01*
X271209Y66411D01*
X271398Y66253D01*
X271582Y66091D01*
X271643Y66050D01*
X271699Y66003D01*
X271906Y65871D01*
X272109Y65733D01*
X272174Y65700D01*
X272236Y65660D01*
X272458Y65555D01*
X272677Y65443D01*
X272745Y65419D01*
X272811Y65387D01*
X273045Y65311D01*
X273276Y65227D01*
X273347Y65211D01*
X273417Y65188D01*
X273658Y65142D01*
X273898Y65088D01*
X273970Y65081D01*
X274042Y65067D01*
X274273Y65052D01*
X274532Y65027D01*
X274616Y65030D01*
X274696Y65025D01*
X425196Y65025D01*
X425351Y65034D01*
X425506Y65034D01*
X425668Y65054D01*
X425832Y65065D01*
X425984Y65094D01*
X426138Y65113D01*
X426297Y65153D01*
X426458Y65184D01*
X426605Y65232D01*
X426755Y65270D01*
X426908Y65330D01*
X427064Y65381D01*
X427204Y65446D01*
X427348Y65503D01*
X427492Y65582D01*
X427640Y65652D01*
X427771Y65734D01*
X427907Y65809D01*
X428040Y65905D01*
X428179Y65993D01*
X428298Y66091D01*
X428424Y66182D01*
X428543Y66294D01*
X428670Y66398D01*
X428776Y66511D01*
X428889Y66617D01*
X428994Y66743D01*
X429106Y66862D01*
X429198Y66988D01*
X429297Y67107D01*
X429385Y67245D01*
X429481Y67377D01*
X429556Y67513D01*
X429640Y67644D01*
X429710Y67792D01*
X429789Y67935D01*
X429846Y68079D01*
X429913Y68219D01*
X429964Y68375D01*
X430024Y68528D01*
X430063Y68678D01*
X430112Y68825D01*
X430143Y68986D01*
X430184Y69144D01*
X430203Y69298D01*
X430233Y69450D01*
X430243Y69609D01*
X430265Y69776D01*
X430265Y69945D01*
X430275Y70104D01*
X430275Y346222D01*
X430263Y346418D01*
X430260Y346614D01*
X430243Y346736D01*
X430235Y346858D01*
X430199Y347050D01*
X430171Y347245D01*
X430139Y347363D01*
X430116Y347484D01*
X430056Y347670D01*
X430004Y347859D01*
X429957Y347973D01*
X429919Y348090D01*
X429836Y348268D01*
X429761Y348448D01*
X429701Y348555D01*
X429648Y348667D01*
X429544Y348832D01*
X429447Y349002D01*
X429373Y349101D01*
X429307Y349205D01*
X429183Y349356D01*
X429065Y349513D01*
X428980Y349601D01*
X428902Y349696D01*
X428759Y349830D01*
X428623Y349971D01*
X428527Y350048D01*
X428438Y350133D01*
X428279Y350248D01*
X428127Y350371D01*
X428022Y350435D01*
X427923Y350508D01*
X427751Y350602D01*
X427584Y350705D01*
X427472Y350756D01*
X427365Y350815D01*
X427183Y350888D01*
X427004Y350969D01*
X426887Y351005D01*
X426772Y351051D01*
X426583Y351100D01*
X426396Y351158D01*
X426275Y351179D01*
X426156Y351210D01*
X425961Y351235D01*
X425769Y351269D01*
X425646Y351275D01*
X425524Y351291D01*
X425327Y351291D01*
X425132Y351301D01*
X425010Y351292D01*
X424886Y351292D01*
X424692Y351268D01*
X424497Y351253D01*
X424376Y351229D01*
X424254Y351214D01*
X424064Y351165D01*
X423873Y351126D01*
X423759Y351087D01*
X423637Y351056D01*
X423439Y350978D01*
X423252Y350915D01*
X421071Y350011D01*
X417129Y350011D01*
X413488Y351520D01*
X410702Y354306D01*
X409193Y357947D01*
X409193Y378653D01*
X410702Y382294D01*
X413488Y385080D01*
X417129Y386589D01*
X421071Y386589D01*
X424712Y385081D01*
X428208Y381584D01*
X428325Y381481D01*
X428434Y381372D01*
X428563Y381271D01*
X428686Y381162D01*
X428814Y381075D01*
X428937Y380980D01*
X429078Y380896D01*
X429213Y380804D01*
X429351Y380734D01*
X429484Y380655D01*
X429635Y380589D01*
X429781Y380515D01*
X429926Y380462D01*
X430069Y380400D01*
X430226Y380354D01*
X430380Y380299D01*
X430531Y380265D01*
X430680Y380221D01*
X430842Y380195D01*
X431002Y380159D01*
X431156Y380145D01*
X431309Y380120D01*
X431473Y380114D01*
X431636Y380099D01*
X431791Y380104D01*
X431946Y380098D01*
X432109Y380113D01*
X432273Y380118D01*
X432426Y380142D01*
X432580Y380156D01*
X432740Y380192D01*
X432902Y380217D01*
X433051Y380260D01*
X433202Y380294D01*
X433357Y380349D01*
X433514Y380394D01*
X433657Y380456D01*
X433803Y380508D01*
X433949Y380581D01*
X434099Y380646D01*
X434233Y380725D01*
X434371Y380795D01*
X434507Y380887D01*
X434648Y380970D01*
X434771Y381065D01*
X434899Y381151D01*
X435019Y381256D01*
X435152Y381360D01*
X435272Y381479D01*
X435392Y381584D01*
X438888Y385080D01*
X442529Y386589D01*
X446471Y386589D01*
X450112Y385080D01*
X453082Y382110D01*
X453258Y381955D01*
X453429Y381794D01*
X453497Y381744D01*
X453560Y381689D01*
X453754Y381557D01*
X453944Y381418D01*
X454018Y381378D01*
X454087Y381331D01*
X454296Y381224D01*
X454502Y381110D01*
X454580Y381079D01*
X454654Y381041D01*
X454876Y380961D01*
X455094Y380874D01*
X455175Y380853D01*
X455254Y380825D01*
X455483Y380774D01*
X455711Y380715D01*
X455794Y380704D01*
X455876Y380686D01*
X456110Y380663D01*
X456342Y380633D01*
X456426Y380633D01*
X456510Y380625D01*
X456744Y380632D01*
X456980Y380632D01*
X457063Y380642D01*
X457147Y380645D01*
X457379Y380681D01*
X457612Y380710D01*
X457693Y380731D01*
X457776Y380744D01*
X458002Y380809D01*
X458229Y380867D01*
X458307Y380897D01*
X458388Y380921D01*
X458604Y381014D01*
X458823Y381099D01*
X458896Y381140D01*
X458973Y381173D01*
X459176Y381292D01*
X459382Y381405D01*
X459450Y381454D01*
X459522Y381496D01*
X459708Y381640D01*
X459898Y381778D01*
X459960Y381835D01*
X460026Y381886D01*
X460192Y382052D01*
X460364Y382212D01*
X460417Y382276D01*
X460477Y382336D01*
X460636Y382539D01*
X460783Y382716D01*
X461569Y383798D01*
X462784Y385013D01*
X464175Y386024D01*
X464821Y386353D01*
X464821Y368300D01*
X464821Y350046D01*
X464764Y350061D01*
X464760Y350062D01*
X464756Y350062D01*
X464458Y350100D01*
X464132Y350142D01*
X464128Y350142D01*
X464124Y350142D01*
X463815Y350143D01*
X463494Y350143D01*
X463491Y350143D01*
X463487Y350143D01*
X463173Y350103D01*
X462862Y350064D01*
X462859Y350064D01*
X462855Y350063D01*
X462549Y349985D01*
X462245Y349907D01*
X462241Y349906D01*
X462238Y349905D01*
X461948Y349790D01*
X461652Y349674D01*
X461649Y349672D01*
X461645Y349671D01*
X461380Y349526D01*
X461093Y349368D01*
X461090Y349366D01*
X461087Y349365D01*
X460839Y349185D01*
X460576Y348995D01*
X460574Y348993D01*
X460571Y348991D01*
X460339Y348774D01*
X460111Y348560D01*
X460109Y348558D01*
X460106Y348555D01*
X459901Y348308D01*
X459703Y348070D01*
X459701Y348067D01*
X459699Y348065D01*
X459527Y347795D01*
X459360Y347534D01*
X459359Y347530D01*
X459357Y347527D01*
X459223Y347243D01*
X459087Y346958D01*
X459086Y346954D01*
X459085Y346951D01*
X458988Y346656D01*
X458888Y346353D01*
X458888Y346349D01*
X458887Y346346D01*
X458825Y346028D01*
X458767Y345727D01*
X458767Y345723D01*
X458766Y345720D01*
X458725Y345084D01*
X458725Y345079D01*
X458725Y345073D01*
X458725Y47971D01*
X456559Y42742D01*
X452558Y38741D01*
X447329Y36575D01*
X263871Y36575D01*
G37*
%LPD*%
%LPC*%
G36*
X253996Y161182D02*
X253996Y161182D01*
X253885Y161392D01*
X253838Y161459D01*
X253798Y161530D01*
X253656Y161720D01*
X253521Y161914D01*
X253466Y161975D01*
X253416Y162040D01*
X253252Y162211D01*
X253093Y162386D01*
X253031Y162440D01*
X252974Y162499D01*
X252789Y162648D01*
X252610Y162802D01*
X252542Y162847D01*
X252478Y162899D01*
X252276Y163023D01*
X252079Y163153D01*
X252006Y163189D01*
X251935Y163233D01*
X251699Y163340D01*
X251491Y163443D01*
X245942Y165741D01*
X241941Y169742D01*
X239775Y174971D01*
X239775Y218729D01*
X241941Y223958D01*
X245942Y227959D01*
X251171Y230125D01*
X256829Y230125D01*
X262058Y227959D01*
X262854Y227162D01*
X263032Y227006D01*
X263204Y226844D01*
X263271Y226795D01*
X263332Y226741D01*
X263528Y226608D01*
X263720Y226468D01*
X263791Y226429D01*
X263859Y226383D01*
X264070Y226275D01*
X264277Y226161D01*
X264354Y226131D01*
X264427Y226093D01*
X264650Y226013D01*
X264870Y225926D01*
X264949Y225905D01*
X265026Y225877D01*
X265257Y225825D01*
X265486Y225766D01*
X265568Y225756D01*
X265648Y225738D01*
X265883Y225715D01*
X266118Y225685D01*
X266201Y225685D01*
X266282Y225677D01*
X266518Y225685D01*
X266756Y225684D01*
X266837Y225694D01*
X266919Y225697D01*
X267152Y225733D01*
X267388Y225763D01*
X267467Y225783D01*
X267548Y225796D01*
X267775Y225861D01*
X268005Y225920D01*
X268082Y225950D01*
X268160Y225973D01*
X268378Y226066D01*
X268598Y226153D01*
X268670Y226192D01*
X268745Y226225D01*
X268949Y226345D01*
X269157Y226459D01*
X269224Y226507D01*
X269294Y226548D01*
X269482Y226693D01*
X269674Y226832D01*
X269733Y226888D01*
X269798Y226938D01*
X269966Y227105D01*
X270139Y227267D01*
X270192Y227330D01*
X270250Y227388D01*
X270395Y227575D01*
X270547Y227757D01*
X270591Y227826D01*
X270641Y227891D01*
X270762Y228095D01*
X270890Y228294D01*
X270925Y228368D01*
X270967Y228438D01*
X271061Y228655D01*
X271163Y228869D01*
X271188Y228947D01*
X271221Y229022D01*
X271288Y229250D01*
X271362Y229475D01*
X271377Y229555D01*
X271400Y229634D01*
X271438Y229868D01*
X271483Y230100D01*
X271488Y230180D01*
X271501Y230263D01*
X271510Y230523D01*
X271525Y230754D01*
X271525Y268454D01*
X271521Y268527D01*
X271523Y268599D01*
X271501Y268844D01*
X271485Y269090D01*
X271472Y269161D01*
X271465Y269234D01*
X271412Y269474D01*
X271366Y269715D01*
X271343Y269785D01*
X271328Y269856D01*
X271245Y270087D01*
X271169Y270321D01*
X271138Y270388D01*
X271114Y270456D01*
X271003Y270675D01*
X270898Y270898D01*
X270859Y270960D01*
X270826Y271025D01*
X270689Y271228D01*
X270557Y271436D01*
X270511Y271493D01*
X270470Y271553D01*
X270318Y271726D01*
X270152Y271928D01*
X270091Y271985D01*
X270038Y272045D01*
X269631Y272451D01*
X268105Y276136D01*
X268105Y280124D01*
X269631Y283809D01*
X272451Y286629D01*
X276136Y288155D01*
X280124Y288155D01*
X283809Y286629D01*
X286933Y283504D01*
X287141Y283321D01*
X287331Y283148D01*
X287327Y283070D01*
X287330Y283029D01*
X287329Y282988D01*
X287354Y282712D01*
X287375Y282435D01*
X287383Y282395D01*
X287387Y282354D01*
X287446Y282083D01*
X287502Y281811D01*
X287515Y281772D01*
X287524Y281732D01*
X287632Y281428D01*
X287713Y281190D01*
X288155Y280124D01*
X288155Y276136D01*
X286629Y272451D01*
X286222Y272045D01*
X286174Y271991D01*
X286121Y271941D01*
X285963Y271752D01*
X285801Y271567D01*
X285760Y271507D01*
X285713Y271451D01*
X285581Y271244D01*
X285443Y271040D01*
X285410Y270976D01*
X285370Y270914D01*
X285265Y270692D01*
X285153Y270473D01*
X285128Y270404D01*
X285097Y270338D01*
X285021Y270105D01*
X284937Y269874D01*
X284921Y269802D01*
X284898Y269733D01*
X284852Y269492D01*
X284798Y269252D01*
X284791Y269179D01*
X284777Y269108D01*
X284762Y268876D01*
X284737Y268618D01*
X284740Y268534D01*
X284735Y268454D01*
X284735Y244589D01*
X284752Y244312D01*
X284765Y244035D01*
X284772Y243994D01*
X284775Y243953D01*
X284827Y243681D01*
X284874Y243407D01*
X284886Y243368D01*
X284894Y243327D01*
X284980Y243063D01*
X285061Y242798D01*
X285078Y242760D01*
X285091Y242721D01*
X285209Y242470D01*
X285323Y242217D01*
X285344Y242182D01*
X285362Y242145D01*
X285510Y241910D01*
X285655Y241673D01*
X285681Y241641D01*
X285703Y241607D01*
X285880Y241392D01*
X285954Y241300D01*
X285891Y241221D01*
X285713Y241008D01*
X285691Y240974D01*
X285666Y240942D01*
X285520Y240705D01*
X285370Y240471D01*
X285353Y240434D01*
X285331Y240399D01*
X285216Y240147D01*
X285097Y239896D01*
X285084Y239856D01*
X285068Y239819D01*
X284985Y239554D01*
X284898Y239290D01*
X284891Y239250D01*
X284878Y239211D01*
X284830Y238938D01*
X284777Y238665D01*
X284774Y238624D01*
X284767Y238583D01*
X284751Y238262D01*
X284735Y238011D01*
X284735Y202184D01*
X284744Y202029D01*
X284744Y201874D01*
X284764Y201712D01*
X284775Y201548D01*
X284804Y201396D01*
X284823Y201242D01*
X284863Y201083D01*
X284894Y200922D01*
X284942Y200775D01*
X284980Y200625D01*
X285040Y200472D01*
X285091Y200316D01*
X285156Y200176D01*
X285213Y200032D01*
X285292Y199888D01*
X285362Y199740D01*
X285444Y199609D01*
X285519Y199473D01*
X285615Y199340D01*
X285703Y199201D01*
X285801Y199082D01*
X285892Y198956D01*
X286004Y198837D01*
X286108Y198710D01*
X286221Y198604D01*
X286327Y198491D01*
X286453Y198386D01*
X286572Y198274D01*
X286698Y198182D01*
X286817Y198083D01*
X286955Y197995D01*
X287087Y197899D01*
X287223Y197824D01*
X287354Y197740D01*
X287502Y197670D01*
X287645Y197591D01*
X287789Y197534D01*
X287929Y197467D01*
X288085Y197416D01*
X288238Y197356D01*
X288388Y197317D01*
X288535Y197268D01*
X288696Y197237D01*
X288854Y197196D01*
X289008Y197177D01*
X289160Y197147D01*
X289319Y197137D01*
X289486Y197115D01*
X289655Y197115D01*
X289814Y197105D01*
X399405Y197105D01*
X399478Y197109D01*
X399551Y197107D01*
X399796Y197129D01*
X400041Y197145D01*
X400113Y197158D01*
X400185Y197165D01*
X400426Y197218D01*
X400667Y197264D01*
X400736Y197287D01*
X400808Y197302D01*
X401039Y197385D01*
X401273Y197461D01*
X401339Y197492D01*
X401408Y197516D01*
X401627Y197627D01*
X401849Y197732D01*
X401911Y197771D01*
X401976Y197804D01*
X402180Y197941D01*
X402388Y198073D01*
X402444Y198119D01*
X402504Y198160D01*
X402678Y198313D01*
X402879Y198478D01*
X402936Y198539D01*
X402997Y198592D01*
X403033Y198629D01*
X409767Y198629D01*
X414529Y193867D01*
X414529Y187133D01*
X409767Y182371D01*
X403033Y182371D01*
X402997Y182408D01*
X402942Y182456D01*
X402892Y182509D01*
X402703Y182667D01*
X402519Y182829D01*
X402458Y182870D01*
X402402Y182917D01*
X402195Y183049D01*
X401992Y183187D01*
X401927Y183220D01*
X401865Y183260D01*
X401643Y183365D01*
X401424Y183477D01*
X401356Y183501D01*
X401290Y183533D01*
X401056Y183609D01*
X400825Y183693D01*
X400754Y183709D01*
X400684Y183732D01*
X400443Y183778D01*
X400203Y183832D01*
X400131Y183839D01*
X400059Y183853D01*
X399828Y183868D01*
X399569Y183893D01*
X399486Y183890D01*
X399405Y183895D01*
X276816Y183895D01*
X275248Y184545D01*
X275063Y184608D01*
X274880Y184681D01*
X274761Y184712D01*
X274645Y184751D01*
X274453Y184791D01*
X274264Y184840D01*
X274142Y184856D01*
X274021Y184881D01*
X273826Y184896D01*
X273632Y184921D01*
X273509Y184921D01*
X273386Y184931D01*
X273190Y184922D01*
X272994Y184922D01*
X272872Y184907D01*
X272750Y184901D01*
X272557Y184868D01*
X272362Y184844D01*
X272243Y184813D01*
X272122Y184792D01*
X271935Y184735D01*
X271745Y184686D01*
X271630Y184641D01*
X271513Y184605D01*
X271334Y184525D01*
X271152Y184453D01*
X271044Y184394D01*
X270932Y184344D01*
X270765Y184242D01*
X270593Y184148D01*
X270493Y184075D01*
X270388Y184011D01*
X270235Y183889D01*
X270076Y183774D01*
X269987Y183690D01*
X269890Y183614D01*
X269754Y183473D01*
X269611Y183339D01*
X269532Y183245D01*
X269446Y183157D01*
X269328Y183000D01*
X269203Y182850D01*
X269137Y182746D01*
X269063Y182648D01*
X268966Y182478D01*
X268860Y182313D01*
X268808Y182202D01*
X268747Y182095D01*
X268671Y181914D01*
X268587Y181737D01*
X268549Y181620D01*
X268502Y181507D01*
X268450Y181318D01*
X268388Y181132D01*
X268365Y181011D01*
X268332Y180892D01*
X268304Y180698D01*
X268267Y180506D01*
X268259Y180386D01*
X268241Y180262D01*
X268237Y180049D01*
X268225Y179852D01*
X268225Y174971D01*
X266059Y169742D01*
X262058Y165741D01*
X256509Y163443D01*
X256297Y163338D01*
X256081Y163241D01*
X256011Y163198D01*
X255937Y163162D01*
X255739Y163032D01*
X255537Y162909D01*
X255473Y162858D01*
X255404Y162813D01*
X255224Y162659D01*
X255039Y162511D01*
X254982Y162452D01*
X254920Y162399D01*
X254761Y162224D01*
X254595Y162054D01*
X254546Y161989D01*
X254491Y161928D01*
X254355Y161735D01*
X254212Y161545D01*
X254171Y161474D01*
X254124Y161407D01*
X254013Y161198D01*
X254000Y161175D01*
X253996Y161182D01*
G37*
%LPD*%
%LPC*%
G36*
X48981Y389635D02*
X48981Y389635D01*
X45620Y391027D01*
X43047Y393600D01*
X41655Y396961D01*
X41655Y415839D01*
X43083Y419286D01*
X43129Y419338D01*
X43170Y419398D01*
X43217Y419455D01*
X43349Y419662D01*
X43487Y419865D01*
X43520Y419930D01*
X43560Y419991D01*
X43665Y420214D01*
X43777Y420433D01*
X43801Y420501D01*
X43833Y420567D01*
X43909Y420801D01*
X43993Y421032D01*
X44009Y421103D01*
X44032Y421172D01*
X44078Y421414D01*
X44132Y421654D01*
X44139Y421726D01*
X44153Y421798D01*
X44168Y422029D01*
X44193Y422288D01*
X44190Y422371D01*
X44195Y422452D01*
X44195Y441148D01*
X44191Y441221D01*
X44193Y441294D01*
X44171Y441539D01*
X44155Y441784D01*
X44142Y441856D01*
X44135Y441928D01*
X44082Y442169D01*
X44036Y442410D01*
X44013Y442479D01*
X43998Y442551D01*
X43915Y442782D01*
X43839Y443016D01*
X43808Y443082D01*
X43784Y443151D01*
X43673Y443370D01*
X43568Y443593D01*
X43529Y443654D01*
X43496Y443719D01*
X43359Y443923D01*
X43227Y444131D01*
X43181Y444187D01*
X43140Y444248D01*
X43084Y444311D01*
X41655Y447761D01*
X41655Y466639D01*
X43047Y470000D01*
X45620Y472573D01*
X48981Y473965D01*
X52619Y473965D01*
X55980Y472573D01*
X58552Y470000D01*
X58807Y469385D01*
X58912Y469172D01*
X59009Y468956D01*
X59052Y468886D01*
X59088Y468813D01*
X59218Y468615D01*
X59341Y468413D01*
X59392Y468349D01*
X59437Y468280D01*
X59591Y468100D01*
X59739Y467915D01*
X59798Y467858D01*
X59851Y467795D01*
X60026Y467636D01*
X60196Y467471D01*
X60261Y467421D01*
X60322Y467366D01*
X60515Y467230D01*
X60705Y467088D01*
X60776Y467047D01*
X60843Y467000D01*
X61052Y466889D01*
X61258Y466771D01*
X61333Y466739D01*
X61406Y466701D01*
X61627Y466617D01*
X61846Y466526D01*
X61925Y466504D01*
X62002Y466475D01*
X62232Y466420D01*
X62460Y466357D01*
X62541Y466345D01*
X62621Y466326D01*
X62856Y466300D01*
X63091Y466266D01*
X63173Y466264D01*
X63254Y466255D01*
X63490Y466259D01*
X63728Y466254D01*
X63809Y466263D01*
X63891Y466264D01*
X64125Y466297D01*
X64361Y466323D01*
X64441Y466342D01*
X64522Y466353D01*
X64751Y466415D01*
X64981Y466470D01*
X65058Y466499D01*
X65137Y466520D01*
X65356Y466610D01*
X65578Y466694D01*
X65650Y466732D01*
X65726Y466763D01*
X65932Y466880D01*
X66142Y466990D01*
X66209Y467037D01*
X66280Y467078D01*
X66470Y467219D01*
X66664Y467355D01*
X66725Y467410D01*
X66790Y467459D01*
X66961Y467624D01*
X67136Y467782D01*
X67190Y467845D01*
X67249Y467901D01*
X67397Y468086D01*
X67552Y468266D01*
X67597Y468334D01*
X67648Y468398D01*
X67773Y468600D01*
X67903Y468797D01*
X67939Y468869D01*
X67983Y468940D01*
X68090Y469177D01*
X68193Y469385D01*
X68447Y470000D01*
X71020Y472573D01*
X74381Y473965D01*
X78019Y473965D01*
X78847Y473622D01*
X78955Y473585D01*
X79059Y473539D01*
X79256Y473482D01*
X79450Y473415D01*
X79561Y473392D01*
X79671Y473360D01*
X79873Y473328D01*
X80074Y473286D01*
X80187Y473277D01*
X80300Y473259D01*
X80504Y473252D01*
X80709Y473236D01*
X80823Y473241D01*
X80937Y473237D01*
X81141Y473256D01*
X81345Y473265D01*
X81457Y473285D01*
X81571Y473295D01*
X81771Y473340D01*
X81973Y473375D01*
X82082Y473408D01*
X82193Y473433D01*
X82386Y473501D01*
X82582Y473561D01*
X82686Y473608D01*
X82793Y473647D01*
X82976Y473739D01*
X83163Y473823D01*
X83260Y473883D01*
X83362Y473934D01*
X83531Y474048D01*
X83707Y474155D01*
X83796Y474227D01*
X83890Y474290D01*
X84038Y474420D01*
X84204Y474553D01*
X84292Y474643D01*
X84382Y474723D01*
X85159Y475499D01*
X87586Y476505D01*
X221605Y476505D01*
X221678Y476509D01*
X221751Y476507D01*
X221996Y476529D01*
X222241Y476545D01*
X222313Y476558D01*
X222385Y476565D01*
X222626Y476618D01*
X222867Y476664D01*
X222936Y476687D01*
X223008Y476702D01*
X223239Y476785D01*
X223473Y476861D01*
X223539Y476892D01*
X223608Y476916D01*
X223827Y477027D01*
X224049Y477132D01*
X224111Y477171D01*
X224176Y477204D01*
X224380Y477341D01*
X224588Y477473D01*
X224644Y477519D01*
X224704Y477560D01*
X224878Y477713D01*
X225079Y477878D01*
X225136Y477939D01*
X225197Y477992D01*
X225233Y478029D01*
X231967Y478029D01*
X236729Y473267D01*
X236729Y466533D01*
X231967Y461771D01*
X225233Y461771D01*
X225197Y461808D01*
X225142Y461856D01*
X225092Y461909D01*
X224903Y462067D01*
X224719Y462229D01*
X224658Y462270D01*
X224602Y462317D01*
X224395Y462449D01*
X224192Y462587D01*
X224127Y462620D01*
X224065Y462660D01*
X223843Y462765D01*
X223624Y462877D01*
X223556Y462901D01*
X223490Y462933D01*
X223256Y463009D01*
X223025Y463093D01*
X222954Y463109D01*
X222884Y463132D01*
X222643Y463178D01*
X222403Y463232D01*
X222331Y463239D01*
X222259Y463253D01*
X222028Y463268D01*
X221769Y463293D01*
X221686Y463290D01*
X221605Y463295D01*
X93740Y463295D01*
X93667Y463291D01*
X93594Y463293D01*
X93349Y463271D01*
X93104Y463255D01*
X93032Y463242D01*
X92959Y463235D01*
X92719Y463182D01*
X92478Y463136D01*
X92408Y463113D01*
X92337Y463098D01*
X92106Y463015D01*
X91872Y462939D01*
X91806Y462908D01*
X91737Y462884D01*
X91518Y462773D01*
X91295Y462668D01*
X91234Y462629D01*
X91168Y462596D01*
X90965Y462459D01*
X90757Y462327D01*
X90701Y462281D01*
X90640Y462240D01*
X90467Y462087D01*
X90266Y461922D01*
X90208Y461861D01*
X90148Y461808D01*
X86832Y458492D01*
X86784Y458437D01*
X86731Y458387D01*
X86573Y458198D01*
X86411Y458014D01*
X86370Y457954D01*
X86323Y457898D01*
X86191Y457690D01*
X86053Y457487D01*
X86020Y457422D01*
X85980Y457361D01*
X85875Y457139D01*
X85763Y456920D01*
X85739Y456851D01*
X85707Y456785D01*
X85631Y456551D01*
X85547Y456320D01*
X85531Y456249D01*
X85508Y456180D01*
X85462Y455938D01*
X85408Y455698D01*
X85401Y455626D01*
X85387Y455554D01*
X85372Y455323D01*
X85347Y455064D01*
X85350Y454981D01*
X85345Y454900D01*
X85345Y447761D01*
X83953Y444400D01*
X81380Y441827D01*
X78019Y440435D01*
X74381Y440435D01*
X71020Y441827D01*
X68447Y444400D01*
X68193Y445015D01*
X68088Y445228D01*
X67991Y445444D01*
X67948Y445514D01*
X67912Y445587D01*
X67783Y445785D01*
X67659Y445987D01*
X67608Y446052D01*
X67563Y446120D01*
X67409Y446300D01*
X67261Y446485D01*
X67202Y446542D01*
X67149Y446605D01*
X66974Y446764D01*
X66804Y446929D01*
X66739Y446978D01*
X66678Y447034D01*
X66484Y447170D01*
X66295Y447312D01*
X66224Y447353D01*
X66157Y447400D01*
X65947Y447512D01*
X65742Y447629D01*
X65667Y447660D01*
X65594Y447699D01*
X65372Y447783D01*
X65154Y447874D01*
X65075Y447896D01*
X64998Y447925D01*
X64768Y447980D01*
X64540Y448043D01*
X64459Y448055D01*
X64379Y448074D01*
X64143Y448100D01*
X63909Y448134D01*
X63827Y448136D01*
X63746Y448145D01*
X63509Y448141D01*
X63272Y448146D01*
X63191Y448137D01*
X63109Y448136D01*
X62875Y448103D01*
X62639Y448077D01*
X62559Y448058D01*
X62478Y448047D01*
X62250Y447985D01*
X62019Y447930D01*
X61942Y447901D01*
X61863Y447880D01*
X61644Y447789D01*
X61422Y447706D01*
X61350Y447668D01*
X61274Y447637D01*
X61068Y447520D01*
X60858Y447410D01*
X60791Y447363D01*
X60720Y447322D01*
X60530Y447180D01*
X60336Y447045D01*
X60275Y446990D01*
X60210Y446941D01*
X60039Y446776D01*
X59863Y446618D01*
X59810Y446555D01*
X59751Y446498D01*
X59602Y446314D01*
X59448Y446134D01*
X59403Y446066D01*
X59351Y446002D01*
X59227Y445800D01*
X59097Y445603D01*
X59061Y445531D01*
X59017Y445460D01*
X58910Y445223D01*
X58807Y445015D01*
X58517Y444314D01*
X58471Y444262D01*
X58430Y444202D01*
X58383Y444145D01*
X58251Y443938D01*
X58113Y443735D01*
X58080Y443670D01*
X58040Y443609D01*
X57935Y443386D01*
X57823Y443167D01*
X57799Y443099D01*
X57767Y443033D01*
X57691Y442799D01*
X57607Y442568D01*
X57591Y442497D01*
X57568Y442428D01*
X57522Y442186D01*
X57468Y441946D01*
X57461Y441874D01*
X57447Y441802D01*
X57432Y441571D01*
X57407Y441312D01*
X57410Y441229D01*
X57405Y441148D01*
X57405Y422452D01*
X57409Y422379D01*
X57407Y422306D01*
X57429Y422061D01*
X57445Y421816D01*
X57458Y421744D01*
X57465Y421672D01*
X57518Y421431D01*
X57564Y421190D01*
X57587Y421121D01*
X57602Y421049D01*
X57685Y420818D01*
X57761Y420584D01*
X57792Y420518D01*
X57816Y420449D01*
X57927Y420230D01*
X58032Y420007D01*
X58071Y419946D01*
X58104Y419881D01*
X58241Y419677D01*
X58373Y419469D01*
X58419Y419413D01*
X58460Y419352D01*
X58516Y419289D01*
X58807Y418585D01*
X58912Y418372D01*
X59009Y418156D01*
X59052Y418086D01*
X59088Y418013D01*
X59218Y417815D01*
X59341Y417613D01*
X59392Y417549D01*
X59437Y417480D01*
X59591Y417300D01*
X59739Y417115D01*
X59798Y417058D01*
X59851Y416995D01*
X60026Y416836D01*
X60196Y416671D01*
X60261Y416621D01*
X60322Y416566D01*
X60515Y416430D01*
X60705Y416288D01*
X60776Y416247D01*
X60843Y416200D01*
X61052Y416089D01*
X61258Y415971D01*
X61333Y415939D01*
X61406Y415901D01*
X61627Y415817D01*
X61846Y415726D01*
X61925Y415704D01*
X62002Y415675D01*
X62232Y415620D01*
X62460Y415557D01*
X62541Y415545D01*
X62621Y415526D01*
X62856Y415500D01*
X63091Y415466D01*
X63173Y415464D01*
X63254Y415455D01*
X63490Y415459D01*
X63728Y415454D01*
X63809Y415463D01*
X63891Y415464D01*
X64125Y415497D01*
X64361Y415523D01*
X64441Y415542D01*
X64522Y415553D01*
X64751Y415615D01*
X64981Y415670D01*
X65058Y415699D01*
X65137Y415720D01*
X65356Y415810D01*
X65578Y415894D01*
X65650Y415932D01*
X65726Y415963D01*
X65932Y416080D01*
X66142Y416190D01*
X66209Y416237D01*
X66280Y416278D01*
X66470Y416419D01*
X66664Y416555D01*
X66725Y416610D01*
X66790Y416659D01*
X66961Y416824D01*
X67136Y416982D01*
X67190Y417045D01*
X67249Y417101D01*
X67397Y417286D01*
X67552Y417466D01*
X67597Y417534D01*
X67648Y417598D01*
X67773Y417800D01*
X67903Y417997D01*
X67939Y418069D01*
X67983Y418140D01*
X68090Y418377D01*
X68193Y418585D01*
X68447Y419200D01*
X71020Y421773D01*
X74381Y423165D01*
X78019Y423165D01*
X81380Y421773D01*
X83953Y419200D01*
X85345Y415839D01*
X85345Y396961D01*
X83953Y393600D01*
X81380Y391027D01*
X78019Y389635D01*
X74381Y389635D01*
X71020Y391027D01*
X68447Y393600D01*
X68193Y394215D01*
X68088Y394428D01*
X67991Y394644D01*
X67948Y394714D01*
X67912Y394787D01*
X67783Y394985D01*
X67659Y395187D01*
X67608Y395252D01*
X67563Y395320D01*
X67409Y395500D01*
X67261Y395685D01*
X67202Y395742D01*
X67149Y395805D01*
X66974Y395964D01*
X66804Y396129D01*
X66739Y396178D01*
X66678Y396234D01*
X66484Y396370D01*
X66295Y396512D01*
X66224Y396553D01*
X66157Y396600D01*
X65947Y396712D01*
X65742Y396829D01*
X65667Y396860D01*
X65594Y396899D01*
X65372Y396983D01*
X65154Y397074D01*
X65075Y397096D01*
X64998Y397125D01*
X64768Y397180D01*
X64540Y397243D01*
X64459Y397255D01*
X64379Y397274D01*
X64143Y397300D01*
X63909Y397334D01*
X63827Y397336D01*
X63746Y397345D01*
X63509Y397341D01*
X63272Y397346D01*
X63191Y397337D01*
X63109Y397336D01*
X62875Y397303D01*
X62639Y397277D01*
X62559Y397258D01*
X62478Y397247D01*
X62250Y397185D01*
X62019Y397130D01*
X61942Y397101D01*
X61863Y397080D01*
X61644Y396989D01*
X61422Y396906D01*
X61350Y396868D01*
X61274Y396837D01*
X61068Y396720D01*
X60858Y396610D01*
X60791Y396563D01*
X60720Y396522D01*
X60530Y396380D01*
X60336Y396245D01*
X60275Y396190D01*
X60210Y396141D01*
X60039Y395976D01*
X59863Y395818D01*
X59810Y395755D01*
X59751Y395698D01*
X59602Y395514D01*
X59448Y395334D01*
X59403Y395266D01*
X59351Y395202D01*
X59227Y395000D01*
X59097Y394803D01*
X59061Y394731D01*
X59017Y394660D01*
X58910Y394423D01*
X58807Y394215D01*
X58552Y393600D01*
X55980Y391027D01*
X52619Y389635D01*
X48981Y389635D01*
G37*
%LPD*%
%LPC*%
G36*
X530033Y182371D02*
X530033Y182371D01*
X525271Y187133D01*
X525271Y193867D01*
X530033Y198629D01*
X536767Y198629D01*
X536803Y198592D01*
X536858Y198544D01*
X536908Y198491D01*
X537097Y198333D01*
X537281Y198171D01*
X537342Y198130D01*
X537398Y198083D01*
X537605Y197951D01*
X537808Y197813D01*
X537873Y197780D01*
X537935Y197740D01*
X538157Y197635D01*
X538376Y197523D01*
X538444Y197499D01*
X538510Y197467D01*
X538744Y197391D01*
X538975Y197307D01*
X539046Y197291D01*
X539116Y197268D01*
X539357Y197222D01*
X539597Y197168D01*
X539669Y197161D01*
X539741Y197147D01*
X539972Y197132D01*
X540231Y197107D01*
X540314Y197110D01*
X540395Y197105D01*
X547116Y197105D01*
X547271Y197114D01*
X547426Y197114D01*
X547588Y197134D01*
X547752Y197145D01*
X547904Y197174D01*
X548058Y197193D01*
X548217Y197233D01*
X548378Y197264D01*
X548525Y197312D01*
X548675Y197350D01*
X548828Y197410D01*
X548984Y197461D01*
X549124Y197526D01*
X549268Y197583D01*
X549412Y197662D01*
X549560Y197732D01*
X549691Y197814D01*
X549827Y197889D01*
X549960Y197985D01*
X550099Y198073D01*
X550218Y198171D01*
X550344Y198262D01*
X550463Y198374D01*
X550590Y198478D01*
X550696Y198591D01*
X550809Y198697D01*
X550914Y198823D01*
X551026Y198942D01*
X551118Y199068D01*
X551217Y199187D01*
X551305Y199325D01*
X551401Y199457D01*
X551476Y199593D01*
X551560Y199724D01*
X551630Y199872D01*
X551709Y200015D01*
X551766Y200159D01*
X551833Y200299D01*
X551884Y200455D01*
X551944Y200608D01*
X551983Y200758D01*
X552032Y200905D01*
X552063Y201066D01*
X552104Y201224D01*
X552123Y201378D01*
X552153Y201530D01*
X552163Y201689D01*
X552185Y201856D01*
X552185Y202025D01*
X552195Y202184D01*
X552195Y325360D01*
X552191Y325433D01*
X552193Y325506D01*
X552171Y325751D01*
X552155Y325996D01*
X552142Y326068D01*
X552135Y326141D01*
X552082Y326381D01*
X552036Y326622D01*
X552013Y326692D01*
X551998Y326763D01*
X551915Y326994D01*
X551839Y327228D01*
X551808Y327294D01*
X551784Y327363D01*
X551673Y327582D01*
X551568Y327805D01*
X551529Y327866D01*
X551496Y327932D01*
X551359Y328135D01*
X551227Y328343D01*
X551181Y328399D01*
X551140Y328460D01*
X550987Y328633D01*
X550822Y328834D01*
X550761Y328892D01*
X550708Y328952D01*
X540501Y339159D01*
X539495Y341586D01*
X539495Y350409D01*
X539491Y350481D01*
X539493Y350554D01*
X539471Y350799D01*
X539455Y351044D01*
X539442Y351116D01*
X539435Y351189D01*
X539382Y351429D01*
X539336Y351670D01*
X539314Y351740D01*
X539298Y351811D01*
X539215Y352043D01*
X539139Y352276D01*
X539108Y352343D01*
X539084Y352411D01*
X538973Y352631D01*
X538868Y352853D01*
X538829Y352915D01*
X538796Y352980D01*
X538659Y353183D01*
X538527Y353391D01*
X538481Y353448D01*
X538440Y353508D01*
X538290Y353679D01*
X538276Y353698D01*
X538257Y353718D01*
X538122Y353882D01*
X538061Y353940D01*
X538008Y354000D01*
X537701Y354306D01*
X536193Y357947D01*
X536193Y378653D01*
X537702Y382294D01*
X540488Y385080D01*
X544129Y386589D01*
X548071Y386589D01*
X551712Y385081D01*
X555208Y381584D01*
X555325Y381481D01*
X555434Y381372D01*
X555563Y381271D01*
X555686Y381162D01*
X555814Y381075D01*
X555937Y380980D01*
X556078Y380896D01*
X556213Y380804D01*
X556351Y380734D01*
X556484Y380655D01*
X556635Y380589D01*
X556781Y380515D01*
X556926Y380462D01*
X557069Y380400D01*
X557226Y380354D01*
X557380Y380299D01*
X557531Y380265D01*
X557680Y380221D01*
X557842Y380195D01*
X558002Y380159D01*
X558156Y380145D01*
X558309Y380120D01*
X558473Y380114D01*
X558636Y380099D01*
X558791Y380104D01*
X558946Y380098D01*
X559109Y380113D01*
X559273Y380118D01*
X559426Y380142D01*
X559580Y380156D01*
X559740Y380192D01*
X559902Y380217D01*
X560051Y380260D01*
X560202Y380294D01*
X560357Y380349D01*
X560514Y380394D01*
X560657Y380456D01*
X560803Y380508D01*
X560949Y380581D01*
X561099Y380646D01*
X561233Y380725D01*
X561371Y380795D01*
X561507Y380887D01*
X561648Y380970D01*
X561771Y381065D01*
X561899Y381151D01*
X562019Y381256D01*
X562152Y381360D01*
X562272Y381479D01*
X562392Y381584D01*
X565888Y385080D01*
X569529Y386589D01*
X573471Y386589D01*
X577112Y385081D01*
X580082Y382110D01*
X580259Y381954D01*
X580429Y381794D01*
X580497Y381744D01*
X580560Y381689D01*
X580755Y381556D01*
X580944Y381418D01*
X581017Y381378D01*
X581087Y381331D01*
X581296Y381224D01*
X581502Y381110D01*
X581580Y381079D01*
X581654Y381041D01*
X581875Y380961D01*
X582094Y380874D01*
X582175Y380853D01*
X582254Y380825D01*
X582483Y380774D01*
X582711Y380715D01*
X582794Y380704D01*
X582876Y380686D01*
X583110Y380663D01*
X583343Y380633D01*
X583426Y380633D01*
X583510Y380625D01*
X583744Y380632D01*
X583980Y380632D01*
X584063Y380642D01*
X584147Y380645D01*
X584378Y380681D01*
X584612Y380710D01*
X584693Y380731D01*
X584776Y380744D01*
X585001Y380809D01*
X585230Y380867D01*
X585308Y380897D01*
X585388Y380921D01*
X585604Y381014D01*
X585823Y381099D01*
X585896Y381140D01*
X585973Y381173D01*
X586176Y381292D01*
X586382Y381405D01*
X586450Y381454D01*
X586522Y381496D01*
X586708Y381640D01*
X586899Y381778D01*
X586960Y381835D01*
X587026Y381886D01*
X587192Y382052D01*
X587364Y382212D01*
X587417Y382276D01*
X587477Y382336D01*
X587636Y382539D01*
X587783Y382716D01*
X588569Y383798D01*
X589784Y385013D01*
X591175Y386024D01*
X591821Y386353D01*
X591821Y368300D01*
X591821Y350247D01*
X591175Y350576D01*
X589784Y351587D01*
X588569Y352802D01*
X587783Y353884D01*
X587633Y354065D01*
X587489Y354251D01*
X587430Y354310D01*
X587377Y354375D01*
X587205Y354536D01*
X587040Y354702D01*
X586974Y354754D01*
X586912Y354811D01*
X586722Y354949D01*
X586537Y355094D01*
X586465Y355136D01*
X586397Y355186D01*
X586192Y355299D01*
X585989Y355419D01*
X585912Y355453D01*
X585839Y355493D01*
X585621Y355579D01*
X585405Y355673D01*
X585325Y355697D01*
X585247Y355728D01*
X585019Y355786D01*
X584794Y355853D01*
X584711Y355866D01*
X584630Y355887D01*
X584397Y355916D01*
X584165Y355954D01*
X584081Y355957D01*
X583998Y355967D01*
X583763Y355967D01*
X583528Y355975D01*
X583444Y355968D01*
X583361Y355968D01*
X583127Y355939D01*
X582893Y355917D01*
X582812Y355899D01*
X582728Y355889D01*
X582501Y355831D01*
X582271Y355780D01*
X582192Y355752D01*
X582111Y355731D01*
X581893Y355645D01*
X581671Y355566D01*
X581596Y355528D01*
X581518Y355498D01*
X581312Y355385D01*
X581102Y355279D01*
X581033Y355232D01*
X580959Y355192D01*
X580769Y355054D01*
X580574Y354922D01*
X580512Y354868D01*
X580443Y354818D01*
X580255Y354642D01*
X580082Y354490D01*
X577112Y351519D01*
X573471Y350011D01*
X569529Y350011D01*
X565888Y351520D01*
X562392Y355016D01*
X562275Y355119D01*
X562166Y355228D01*
X562037Y355329D01*
X561914Y355438D01*
X561786Y355525D01*
X561663Y355620D01*
X561522Y355704D01*
X561387Y355796D01*
X561249Y355866D01*
X561116Y355945D01*
X560965Y356011D01*
X560819Y356085D01*
X560673Y356138D01*
X560531Y356200D01*
X560374Y356246D01*
X560220Y356301D01*
X560069Y356335D01*
X559920Y356379D01*
X559758Y356405D01*
X559598Y356441D01*
X559444Y356455D01*
X559291Y356480D01*
X559127Y356486D01*
X558964Y356501D01*
X558809Y356496D01*
X558654Y356502D01*
X558491Y356487D01*
X558327Y356482D01*
X558174Y356458D01*
X558020Y356444D01*
X557860Y356408D01*
X557698Y356383D01*
X557549Y356340D01*
X557398Y356306D01*
X557243Y356251D01*
X557086Y356206D01*
X556943Y356144D01*
X556797Y356092D01*
X556651Y356019D01*
X556501Y355954D01*
X556367Y355875D01*
X556229Y355805D01*
X556093Y355713D01*
X555952Y355630D01*
X555829Y355535D01*
X555701Y355449D01*
X555581Y355344D01*
X555448Y355240D01*
X555328Y355121D01*
X555208Y355016D01*
X554192Y354000D01*
X554144Y353946D01*
X554091Y353896D01*
X553958Y353736D01*
X553935Y353712D01*
X553922Y353693D01*
X553771Y353522D01*
X553730Y353462D01*
X553683Y353406D01*
X553551Y353199D01*
X553413Y352995D01*
X553380Y352930D01*
X553340Y352869D01*
X553235Y352647D01*
X553123Y352428D01*
X553099Y352359D01*
X553067Y352293D01*
X552991Y352059D01*
X552907Y351828D01*
X552891Y351757D01*
X552868Y351688D01*
X552822Y351447D01*
X552768Y351207D01*
X552761Y351134D01*
X552747Y351062D01*
X552732Y350831D01*
X552707Y350572D01*
X552710Y350489D01*
X552705Y350409D01*
X552705Y347740D01*
X552709Y347667D01*
X552707Y347594D01*
X552729Y347349D01*
X552745Y347104D01*
X552758Y347032D01*
X552765Y346959D01*
X552818Y346719D01*
X552864Y346478D01*
X552887Y346408D01*
X552902Y346337D01*
X552985Y346106D01*
X553061Y345872D01*
X553092Y345806D01*
X553116Y345737D01*
X553227Y345518D01*
X553332Y345295D01*
X553371Y345234D01*
X553404Y345168D01*
X553541Y344965D01*
X553673Y344757D01*
X553719Y344701D01*
X553760Y344640D01*
X553913Y344467D01*
X554078Y344266D01*
X554139Y344208D01*
X554192Y344148D01*
X564399Y333941D01*
X565405Y331514D01*
X565405Y189186D01*
X564399Y186759D01*
X562541Y184901D01*
X560114Y183895D01*
X540395Y183895D01*
X540322Y183891D01*
X540249Y183893D01*
X540004Y183871D01*
X539759Y183855D01*
X539687Y183842D01*
X539615Y183835D01*
X539374Y183782D01*
X539133Y183736D01*
X539064Y183713D01*
X538992Y183698D01*
X538761Y183615D01*
X538527Y183539D01*
X538461Y183508D01*
X538392Y183484D01*
X538173Y183373D01*
X537951Y183268D01*
X537889Y183229D01*
X537824Y183196D01*
X537620Y183059D01*
X537412Y182927D01*
X537356Y182881D01*
X537296Y182840D01*
X537122Y182687D01*
X536921Y182522D01*
X536864Y182461D01*
X536803Y182408D01*
X536767Y182371D01*
X530033Y182371D01*
G37*
%LPD*%
%LPC*%
G36*
X69308Y54675D02*
X69308Y54675D01*
X65072Y56430D01*
X61830Y59672D01*
X60075Y63908D01*
X60075Y68539D01*
X60073Y68571D01*
X60075Y68603D01*
X60053Y68889D01*
X60035Y69175D01*
X60029Y69206D01*
X60027Y69238D01*
X59970Y69520D01*
X59916Y69801D01*
X59906Y69831D01*
X59900Y69863D01*
X59819Y70100D01*
X59719Y70407D01*
X59702Y70445D01*
X59689Y70483D01*
X58165Y74161D01*
X58165Y184439D01*
X60331Y189668D01*
X64332Y193669D01*
X69561Y195835D01*
X75219Y195835D01*
X80448Y193669D01*
X84449Y189668D01*
X86615Y184439D01*
X86615Y74161D01*
X84436Y68902D01*
X84353Y68802D01*
X84191Y68618D01*
X84150Y68557D01*
X84103Y68501D01*
X83971Y68294D01*
X83833Y68091D01*
X83800Y68026D01*
X83760Y67964D01*
X83655Y67742D01*
X83543Y67523D01*
X83519Y67455D01*
X83487Y67389D01*
X83411Y67155D01*
X83327Y66924D01*
X83311Y66853D01*
X83288Y66783D01*
X83242Y66542D01*
X83188Y66302D01*
X83181Y66230D01*
X83167Y66158D01*
X83152Y65927D01*
X83127Y65668D01*
X83130Y65584D01*
X83125Y65504D01*
X83125Y63908D01*
X81370Y59672D01*
X78128Y56430D01*
X73892Y54675D01*
X69308Y54675D01*
G37*
%LPD*%
%LPC*%
G36*
X36281Y326135D02*
X36281Y326135D01*
X32920Y327527D01*
X30347Y330100D01*
X28955Y333461D01*
X28955Y352339D01*
X30347Y355700D01*
X32920Y358273D01*
X36281Y359665D01*
X39919Y359665D01*
X43280Y358273D01*
X45852Y355700D01*
X46107Y355085D01*
X46212Y354872D01*
X46309Y354656D01*
X46352Y354586D01*
X46388Y354513D01*
X46518Y354315D01*
X46641Y354113D01*
X46692Y354049D01*
X46737Y353980D01*
X46891Y353800D01*
X47039Y353615D01*
X47098Y353558D01*
X47151Y353495D01*
X47326Y353336D01*
X47496Y353171D01*
X47561Y353121D01*
X47622Y353066D01*
X47815Y352930D01*
X48005Y352788D01*
X48076Y352747D01*
X48143Y352700D01*
X48352Y352589D01*
X48558Y352471D01*
X48633Y352439D01*
X48706Y352401D01*
X48927Y352317D01*
X49146Y352226D01*
X49225Y352204D01*
X49302Y352175D01*
X49532Y352120D01*
X49760Y352057D01*
X49841Y352045D01*
X49921Y352026D01*
X50156Y352000D01*
X50391Y351966D01*
X50473Y351964D01*
X50554Y351955D01*
X50790Y351959D01*
X51028Y351954D01*
X51109Y351963D01*
X51191Y351964D01*
X51425Y351997D01*
X51661Y352023D01*
X51741Y352042D01*
X51822Y352053D01*
X52051Y352115D01*
X52281Y352170D01*
X52358Y352199D01*
X52437Y352220D01*
X52656Y352310D01*
X52878Y352394D01*
X52950Y352432D01*
X53026Y352463D01*
X53232Y352580D01*
X53442Y352690D01*
X53509Y352737D01*
X53580Y352778D01*
X53770Y352919D01*
X53964Y353055D01*
X54025Y353110D01*
X54090Y353159D01*
X54261Y353324D01*
X54436Y353482D01*
X54490Y353545D01*
X54549Y353601D01*
X54697Y353786D01*
X54852Y353966D01*
X54897Y354034D01*
X54948Y354098D01*
X55073Y354300D01*
X55203Y354497D01*
X55239Y354569D01*
X55283Y354640D01*
X55390Y354877D01*
X55493Y355085D01*
X55747Y355700D01*
X58320Y358273D01*
X61681Y359665D01*
X65319Y359665D01*
X68680Y358273D01*
X71252Y355700D01*
X71507Y355085D01*
X71612Y354872D01*
X71709Y354656D01*
X71752Y354586D01*
X71788Y354513D01*
X71918Y354315D01*
X72041Y354113D01*
X72092Y354049D01*
X72137Y353980D01*
X72291Y353800D01*
X72439Y353615D01*
X72498Y353558D01*
X72551Y353495D01*
X72726Y353336D01*
X72896Y353171D01*
X72961Y353121D01*
X73022Y353066D01*
X73215Y352930D01*
X73405Y352788D01*
X73476Y352747D01*
X73543Y352700D01*
X73752Y352589D01*
X73958Y352471D01*
X74033Y352439D01*
X74106Y352401D01*
X74327Y352317D01*
X74546Y352226D01*
X74625Y352204D01*
X74702Y352175D01*
X74932Y352120D01*
X75160Y352057D01*
X75241Y352045D01*
X75321Y352026D01*
X75556Y352000D01*
X75791Y351966D01*
X75873Y351964D01*
X75954Y351955D01*
X76190Y351959D01*
X76428Y351954D01*
X76509Y351963D01*
X76591Y351964D01*
X76825Y351997D01*
X77061Y352023D01*
X77141Y352042D01*
X77222Y352053D01*
X77451Y352115D01*
X77681Y352170D01*
X77758Y352199D01*
X77837Y352220D01*
X78056Y352310D01*
X78278Y352394D01*
X78350Y352432D01*
X78426Y352463D01*
X78632Y352580D01*
X78842Y352690D01*
X78909Y352737D01*
X78980Y352778D01*
X79170Y352919D01*
X79364Y353055D01*
X79425Y353110D01*
X79490Y353159D01*
X79661Y353324D01*
X79836Y353482D01*
X79890Y353545D01*
X79949Y353601D01*
X80097Y353786D01*
X80252Y353966D01*
X80297Y354034D01*
X80348Y354098D01*
X80473Y354300D01*
X80603Y354497D01*
X80639Y354569D01*
X80683Y354640D01*
X80790Y354877D01*
X80893Y355085D01*
X81147Y355700D01*
X83720Y358273D01*
X87081Y359665D01*
X90719Y359665D01*
X94080Y358273D01*
X96652Y355700D01*
X96907Y355085D01*
X97012Y354872D01*
X97109Y354656D01*
X97152Y354586D01*
X97188Y354513D01*
X97318Y354315D01*
X97441Y354113D01*
X97492Y354049D01*
X97537Y353980D01*
X97691Y353800D01*
X97839Y353615D01*
X97898Y353558D01*
X97951Y353495D01*
X98126Y353336D01*
X98296Y353171D01*
X98361Y353121D01*
X98422Y353066D01*
X98615Y352930D01*
X98805Y352788D01*
X98876Y352747D01*
X98943Y352700D01*
X99152Y352589D01*
X99358Y352471D01*
X99433Y352439D01*
X99506Y352401D01*
X99727Y352317D01*
X99946Y352226D01*
X100025Y352204D01*
X100102Y352175D01*
X100332Y352120D01*
X100560Y352057D01*
X100641Y352045D01*
X100721Y352026D01*
X100956Y352000D01*
X101191Y351966D01*
X101273Y351964D01*
X101354Y351955D01*
X101590Y351959D01*
X101828Y351954D01*
X101909Y351963D01*
X101991Y351964D01*
X102225Y351997D01*
X102461Y352023D01*
X102541Y352042D01*
X102622Y352053D01*
X102851Y352115D01*
X103081Y352170D01*
X103158Y352199D01*
X103237Y352220D01*
X103456Y352310D01*
X103678Y352394D01*
X103750Y352432D01*
X103826Y352463D01*
X104032Y352580D01*
X104242Y352690D01*
X104309Y352737D01*
X104380Y352778D01*
X104570Y352919D01*
X104764Y353055D01*
X104825Y353110D01*
X104890Y353159D01*
X105061Y353324D01*
X105236Y353482D01*
X105290Y353545D01*
X105349Y353601D01*
X105497Y353786D01*
X105652Y353966D01*
X105697Y354034D01*
X105748Y354098D01*
X105873Y354300D01*
X106003Y354497D01*
X106039Y354569D01*
X106083Y354640D01*
X106190Y354877D01*
X106293Y355085D01*
X106547Y355700D01*
X109120Y358273D01*
X112481Y359665D01*
X116119Y359665D01*
X119480Y358273D01*
X122053Y355700D01*
X123445Y352339D01*
X123445Y333461D01*
X122053Y330100D01*
X119480Y327527D01*
X116119Y326135D01*
X112481Y326135D01*
X109120Y327527D01*
X106547Y330100D01*
X106293Y330715D01*
X106188Y330928D01*
X106091Y331144D01*
X106048Y331214D01*
X106012Y331287D01*
X105883Y331485D01*
X105759Y331687D01*
X105708Y331752D01*
X105663Y331820D01*
X105509Y332000D01*
X105361Y332185D01*
X105302Y332242D01*
X105249Y332305D01*
X105074Y332464D01*
X104904Y332629D01*
X104839Y332678D01*
X104778Y332734D01*
X104584Y332870D01*
X104395Y333012D01*
X104324Y333053D01*
X104257Y333100D01*
X104047Y333212D01*
X103842Y333329D01*
X103767Y333360D01*
X103694Y333399D01*
X103472Y333483D01*
X103254Y333574D01*
X103175Y333596D01*
X103098Y333625D01*
X102868Y333680D01*
X102640Y333743D01*
X102559Y333755D01*
X102479Y333774D01*
X102243Y333800D01*
X102009Y333834D01*
X101927Y333836D01*
X101846Y333845D01*
X101609Y333841D01*
X101372Y333846D01*
X101291Y333837D01*
X101209Y333836D01*
X100975Y333803D01*
X100739Y333777D01*
X100659Y333758D01*
X100578Y333747D01*
X100350Y333685D01*
X100119Y333630D01*
X100042Y333601D01*
X99963Y333580D01*
X99744Y333489D01*
X99522Y333406D01*
X99450Y333368D01*
X99374Y333337D01*
X99168Y333220D01*
X98958Y333110D01*
X98891Y333063D01*
X98820Y333022D01*
X98630Y332880D01*
X98436Y332745D01*
X98375Y332690D01*
X98310Y332641D01*
X98139Y332476D01*
X97963Y332318D01*
X97910Y332255D01*
X97851Y332198D01*
X97702Y332014D01*
X97548Y331834D01*
X97503Y331766D01*
X97451Y331702D01*
X97327Y331500D01*
X97197Y331303D01*
X97161Y331231D01*
X97117Y331160D01*
X97010Y330923D01*
X96907Y330715D01*
X96652Y330100D01*
X94080Y327527D01*
X90719Y326135D01*
X87081Y326135D01*
X83720Y327527D01*
X81147Y330100D01*
X80893Y330715D01*
X80788Y330928D01*
X80691Y331144D01*
X80648Y331214D01*
X80612Y331287D01*
X80483Y331485D01*
X80359Y331687D01*
X80308Y331752D01*
X80263Y331820D01*
X80109Y332000D01*
X79961Y332185D01*
X79902Y332242D01*
X79849Y332305D01*
X79674Y332464D01*
X79504Y332629D01*
X79439Y332678D01*
X79378Y332734D01*
X79184Y332870D01*
X78995Y333012D01*
X78924Y333053D01*
X78857Y333100D01*
X78647Y333212D01*
X78442Y333329D01*
X78367Y333360D01*
X78294Y333399D01*
X78072Y333483D01*
X77854Y333574D01*
X77775Y333596D01*
X77698Y333625D01*
X77468Y333680D01*
X77240Y333743D01*
X77159Y333755D01*
X77079Y333774D01*
X76843Y333800D01*
X76609Y333834D01*
X76527Y333836D01*
X76446Y333845D01*
X76209Y333841D01*
X75972Y333846D01*
X75891Y333837D01*
X75809Y333836D01*
X75575Y333803D01*
X75339Y333777D01*
X75259Y333758D01*
X75178Y333747D01*
X74950Y333685D01*
X74719Y333630D01*
X74642Y333601D01*
X74563Y333580D01*
X74344Y333489D01*
X74122Y333406D01*
X74050Y333368D01*
X73974Y333337D01*
X73768Y333220D01*
X73558Y333110D01*
X73491Y333063D01*
X73420Y333022D01*
X73230Y332880D01*
X73036Y332745D01*
X72975Y332690D01*
X72910Y332641D01*
X72739Y332476D01*
X72563Y332318D01*
X72510Y332255D01*
X72451Y332198D01*
X72302Y332014D01*
X72148Y331834D01*
X72103Y331766D01*
X72051Y331702D01*
X71927Y331500D01*
X71797Y331303D01*
X71761Y331231D01*
X71717Y331160D01*
X71610Y330923D01*
X71507Y330715D01*
X71252Y330100D01*
X68680Y327527D01*
X65319Y326135D01*
X61681Y326135D01*
X58320Y327527D01*
X55747Y330100D01*
X55493Y330715D01*
X55388Y330928D01*
X55291Y331144D01*
X55248Y331214D01*
X55212Y331287D01*
X55083Y331485D01*
X54959Y331687D01*
X54908Y331752D01*
X54863Y331820D01*
X54709Y332000D01*
X54561Y332185D01*
X54502Y332242D01*
X54449Y332305D01*
X54274Y332464D01*
X54104Y332629D01*
X54039Y332678D01*
X53978Y332734D01*
X53784Y332870D01*
X53595Y333012D01*
X53524Y333053D01*
X53457Y333100D01*
X53247Y333212D01*
X53042Y333329D01*
X52967Y333360D01*
X52894Y333399D01*
X52672Y333483D01*
X52454Y333574D01*
X52375Y333596D01*
X52298Y333625D01*
X52068Y333680D01*
X51840Y333743D01*
X51759Y333755D01*
X51679Y333774D01*
X51443Y333800D01*
X51209Y333834D01*
X51127Y333836D01*
X51046Y333845D01*
X50809Y333841D01*
X50572Y333846D01*
X50491Y333837D01*
X50409Y333836D01*
X50175Y333803D01*
X49939Y333777D01*
X49859Y333758D01*
X49778Y333747D01*
X49550Y333685D01*
X49319Y333630D01*
X49242Y333601D01*
X49163Y333580D01*
X48944Y333489D01*
X48722Y333406D01*
X48650Y333368D01*
X48574Y333337D01*
X48368Y333220D01*
X48158Y333110D01*
X48091Y333063D01*
X48020Y333022D01*
X47830Y332880D01*
X47636Y332745D01*
X47575Y332690D01*
X47510Y332641D01*
X47339Y332476D01*
X47163Y332318D01*
X47110Y332255D01*
X47051Y332198D01*
X46902Y332014D01*
X46748Y331834D01*
X46703Y331766D01*
X46651Y331702D01*
X46527Y331500D01*
X46397Y331303D01*
X46361Y331231D01*
X46317Y331160D01*
X46210Y330923D01*
X46107Y330715D01*
X45852Y330100D01*
X43280Y327527D01*
X39919Y326135D01*
X36281Y326135D01*
G37*
%LPD*%
%LPC*%
G36*
X253996Y84982D02*
X253996Y84982D01*
X253885Y85192D01*
X253838Y85259D01*
X253798Y85330D01*
X253656Y85520D01*
X253521Y85714D01*
X253466Y85775D01*
X253416Y85840D01*
X253252Y86011D01*
X253093Y86186D01*
X253031Y86240D01*
X252974Y86299D01*
X252789Y86448D01*
X252610Y86602D01*
X252542Y86647D01*
X252478Y86699D01*
X252276Y86823D01*
X252079Y86953D01*
X252006Y86989D01*
X251935Y87033D01*
X251699Y87140D01*
X251491Y87243D01*
X245942Y89541D01*
X241941Y93542D01*
X239775Y98771D01*
X239775Y142529D01*
X241941Y147758D01*
X245942Y151759D01*
X251491Y154057D01*
X251704Y154162D01*
X251919Y154259D01*
X251989Y154302D01*
X252063Y154338D01*
X252261Y154467D01*
X252463Y154591D01*
X252527Y154642D01*
X252596Y154687D01*
X252775Y154841D01*
X252961Y154989D01*
X253018Y155048D01*
X253080Y155101D01*
X253240Y155276D01*
X253405Y155446D01*
X253454Y155511D01*
X253509Y155572D01*
X253646Y155766D01*
X253788Y155955D01*
X253829Y156026D01*
X253876Y156093D01*
X253987Y156302D01*
X254000Y156325D01*
X254005Y156318D01*
X254115Y156108D01*
X254162Y156041D01*
X254202Y155970D01*
X254344Y155780D01*
X254479Y155586D01*
X254535Y155525D01*
X254584Y155460D01*
X254747Y155290D01*
X254907Y155114D01*
X254969Y155060D01*
X255026Y155001D01*
X255210Y154853D01*
X255390Y154698D01*
X255459Y154653D01*
X255522Y154602D01*
X255724Y154477D01*
X255921Y154347D01*
X255993Y154311D01*
X256065Y154267D01*
X256302Y154159D01*
X256509Y154057D01*
X262058Y151759D01*
X266059Y147758D01*
X268225Y142529D01*
X268225Y98771D01*
X266059Y93542D01*
X262058Y89541D01*
X256509Y87243D01*
X256297Y87138D01*
X256081Y87041D01*
X256011Y86998D01*
X255937Y86962D01*
X255739Y86832D01*
X255537Y86709D01*
X255473Y86658D01*
X255404Y86613D01*
X255224Y86459D01*
X255039Y86311D01*
X254982Y86252D01*
X254920Y86199D01*
X254761Y86024D01*
X254595Y85854D01*
X254546Y85789D01*
X254491Y85728D01*
X254355Y85535D01*
X254212Y85345D01*
X254171Y85274D01*
X254124Y85207D01*
X254013Y84998D01*
X254000Y84975D01*
X253996Y84982D01*
G37*
%LPD*%
%LPC*%
G36*
X301971Y100075D02*
X301971Y100075D01*
X296742Y102241D01*
X292741Y106242D01*
X290575Y111471D01*
X290575Y155229D01*
X292741Y160458D01*
X296742Y164459D01*
X301971Y166625D01*
X307629Y166625D01*
X312858Y164459D01*
X316859Y160458D01*
X319025Y155229D01*
X319025Y111471D01*
X316859Y106242D01*
X312858Y102241D01*
X307629Y100075D01*
X301971Y100075D01*
G37*
%LPD*%
%LPC*%
G36*
X379006Y231275D02*
X379006Y231275D01*
X375321Y232801D01*
X372501Y235621D01*
X370975Y239306D01*
X370975Y243294D01*
X372501Y246979D01*
X375321Y249799D01*
X379006Y251325D01*
X382994Y251325D01*
X386679Y249799D01*
X387085Y249392D01*
X387139Y249344D01*
X387189Y249291D01*
X387378Y249133D01*
X387563Y248971D01*
X387623Y248930D01*
X387679Y248883D01*
X387886Y248751D01*
X388090Y248613D01*
X388154Y248580D01*
X388216Y248540D01*
X388438Y248435D01*
X388657Y248323D01*
X388726Y248299D01*
X388792Y248267D01*
X389025Y248191D01*
X389256Y248107D01*
X389328Y248091D01*
X389397Y248068D01*
X389638Y248022D01*
X389878Y247968D01*
X389951Y247961D01*
X390022Y247947D01*
X390254Y247932D01*
X390512Y247907D01*
X390596Y247910D01*
X390676Y247905D01*
X399405Y247905D01*
X399478Y247909D01*
X399551Y247907D01*
X399796Y247929D01*
X400041Y247945D01*
X400113Y247958D01*
X400185Y247965D01*
X400426Y248018D01*
X400667Y248064D01*
X400736Y248087D01*
X400808Y248102D01*
X401039Y248185D01*
X401273Y248261D01*
X401339Y248292D01*
X401408Y248316D01*
X401627Y248427D01*
X401849Y248532D01*
X401911Y248571D01*
X401976Y248604D01*
X402180Y248741D01*
X402388Y248873D01*
X402444Y248919D01*
X402504Y248960D01*
X402678Y249113D01*
X402879Y249278D01*
X402936Y249339D01*
X402997Y249392D01*
X403033Y249429D01*
X409767Y249429D01*
X414529Y244667D01*
X414529Y237933D01*
X409767Y233171D01*
X403033Y233171D01*
X402997Y233208D01*
X402942Y233256D01*
X402892Y233309D01*
X402703Y233467D01*
X402519Y233629D01*
X402458Y233670D01*
X402402Y233717D01*
X402195Y233849D01*
X401992Y233987D01*
X401927Y234020D01*
X401865Y234060D01*
X401643Y234165D01*
X401424Y234277D01*
X401356Y234301D01*
X401290Y234333D01*
X401056Y234409D01*
X400825Y234493D01*
X400754Y234509D01*
X400684Y234532D01*
X400443Y234578D01*
X400203Y234632D01*
X400131Y234639D01*
X400059Y234653D01*
X399828Y234668D01*
X399569Y234693D01*
X399486Y234690D01*
X399405Y234695D01*
X390676Y234695D01*
X390603Y234691D01*
X390531Y234693D01*
X390286Y234671D01*
X390040Y234655D01*
X389969Y234642D01*
X389896Y234635D01*
X389656Y234582D01*
X389415Y234536D01*
X389345Y234513D01*
X389274Y234498D01*
X389043Y234415D01*
X388809Y234339D01*
X388742Y234308D01*
X388674Y234284D01*
X388455Y234173D01*
X388232Y234068D01*
X388170Y234029D01*
X388105Y233996D01*
X387902Y233859D01*
X387694Y233727D01*
X387637Y233681D01*
X387577Y233640D01*
X387403Y233487D01*
X387202Y233322D01*
X387145Y233261D01*
X387085Y233208D01*
X386679Y232801D01*
X382994Y231275D01*
X379006Y231275D01*
G37*
%LPD*%
%LPC*%
G36*
X379006Y282075D02*
X379006Y282075D01*
X375321Y283601D01*
X372501Y286421D01*
X370975Y290106D01*
X370975Y294094D01*
X372501Y297779D01*
X375321Y300599D01*
X379006Y302125D01*
X382994Y302125D01*
X386679Y300599D01*
X387085Y300192D01*
X387139Y300144D01*
X387189Y300091D01*
X387378Y299933D01*
X387563Y299771D01*
X387623Y299730D01*
X387679Y299683D01*
X387886Y299551D01*
X388090Y299413D01*
X388154Y299380D01*
X388216Y299340D01*
X388438Y299235D01*
X388657Y299123D01*
X388726Y299099D01*
X388792Y299067D01*
X389025Y298991D01*
X389256Y298907D01*
X389328Y298891D01*
X389397Y298868D01*
X389638Y298822D01*
X389878Y298768D01*
X389951Y298761D01*
X390022Y298747D01*
X390254Y298732D01*
X390512Y298707D01*
X390596Y298710D01*
X390676Y298705D01*
X399405Y298705D01*
X399478Y298709D01*
X399551Y298707D01*
X399796Y298729D01*
X400041Y298745D01*
X400113Y298758D01*
X400185Y298765D01*
X400426Y298818D01*
X400667Y298864D01*
X400736Y298887D01*
X400808Y298902D01*
X401039Y298985D01*
X401273Y299061D01*
X401339Y299092D01*
X401408Y299116D01*
X401627Y299227D01*
X401849Y299332D01*
X401911Y299371D01*
X401976Y299404D01*
X402180Y299541D01*
X402388Y299673D01*
X402444Y299719D01*
X402504Y299760D01*
X402678Y299913D01*
X402879Y300078D01*
X402936Y300139D01*
X402997Y300192D01*
X403033Y300229D01*
X409767Y300229D01*
X414529Y295467D01*
X414529Y288733D01*
X409767Y283971D01*
X403033Y283971D01*
X402997Y284008D01*
X402942Y284056D01*
X402892Y284109D01*
X402703Y284267D01*
X402519Y284429D01*
X402458Y284470D01*
X402402Y284517D01*
X402195Y284649D01*
X401992Y284787D01*
X401927Y284820D01*
X401865Y284860D01*
X401643Y284965D01*
X401424Y285077D01*
X401356Y285101D01*
X401290Y285133D01*
X401056Y285209D01*
X400825Y285293D01*
X400754Y285309D01*
X400684Y285332D01*
X400443Y285378D01*
X400203Y285432D01*
X400131Y285439D01*
X400059Y285453D01*
X399828Y285468D01*
X399569Y285493D01*
X399486Y285490D01*
X399405Y285495D01*
X390676Y285495D01*
X390603Y285491D01*
X390531Y285493D01*
X390286Y285471D01*
X390040Y285455D01*
X389969Y285442D01*
X389896Y285435D01*
X389656Y285382D01*
X389415Y285336D01*
X389345Y285313D01*
X389274Y285298D01*
X389043Y285215D01*
X388809Y285139D01*
X388742Y285108D01*
X388674Y285084D01*
X388455Y284973D01*
X388232Y284868D01*
X388170Y284829D01*
X388105Y284796D01*
X387902Y284659D01*
X387694Y284527D01*
X387637Y284481D01*
X387577Y284440D01*
X387403Y284287D01*
X387202Y284122D01*
X387145Y284061D01*
X387085Y284008D01*
X386679Y283601D01*
X382994Y282075D01*
X379006Y282075D01*
G37*
%LPD*%
%LPC*%
G36*
X302806Y231275D02*
X302806Y231275D01*
X299121Y232801D01*
X296301Y235621D01*
X294507Y239955D01*
X294385Y240204D01*
X294266Y240455D01*
X294244Y240490D01*
X294226Y240527D01*
X294074Y240758D01*
X293925Y240993D01*
X293899Y241025D01*
X293877Y241059D01*
X293697Y241270D01*
X293672Y241300D01*
X293685Y241316D01*
X293866Y241526D01*
X293888Y241560D01*
X293915Y241592D01*
X294064Y241826D01*
X294217Y242057D01*
X294235Y242094D01*
X294258Y242129D01*
X294396Y242420D01*
X294507Y242645D01*
X296301Y246979D01*
X299121Y249799D01*
X302806Y251325D01*
X306794Y251325D01*
X310479Y249799D01*
X313299Y246979D01*
X314825Y243294D01*
X314825Y239306D01*
X313299Y235621D01*
X310479Y232801D01*
X306794Y231275D01*
X302806Y231275D01*
G37*
%LPD*%
%LPC*%
G36*
X530033Y283971D02*
X530033Y283971D01*
X525271Y288733D01*
X525271Y295467D01*
X530033Y300229D01*
X536767Y300229D01*
X541529Y295467D01*
X541529Y288733D01*
X536767Y283971D01*
X530033Y283971D01*
G37*
%LPD*%
%LPC*%
G36*
X377633Y106171D02*
X377633Y106171D01*
X372871Y110933D01*
X372871Y117667D01*
X377633Y122429D01*
X384367Y122429D01*
X389129Y117667D01*
X389129Y110933D01*
X384367Y106171D01*
X377633Y106171D01*
G37*
%LPD*%
%LPC*%
G36*
X377633Y144271D02*
X377633Y144271D01*
X372871Y149033D01*
X372871Y155767D01*
X377633Y160529D01*
X384367Y160529D01*
X389129Y155767D01*
X389129Y149033D01*
X384367Y144271D01*
X377633Y144271D01*
G37*
%LPD*%
%LPC*%
G36*
X530033Y233171D02*
X530033Y233171D01*
X525271Y237933D01*
X525271Y244667D01*
X530033Y249429D01*
X536767Y249429D01*
X541529Y244667D01*
X541529Y237933D01*
X536767Y233171D01*
X530033Y233171D01*
G37*
%LPD*%
%LPC*%
G36*
X601979Y373379D02*
X601979Y373379D01*
X601979Y386353D01*
X602625Y386024D01*
X604016Y385013D01*
X605231Y383798D01*
X606242Y382407D01*
X607023Y380875D01*
X607554Y379240D01*
X607823Y377542D01*
X607823Y373379D01*
X601979Y373379D01*
G37*
%LPD*%
%LPC*%
G36*
X347979Y373379D02*
X347979Y373379D01*
X347979Y386353D01*
X348625Y386024D01*
X350016Y385013D01*
X351231Y383798D01*
X352242Y382407D01*
X353023Y380875D01*
X353554Y379240D01*
X353823Y377542D01*
X353823Y373379D01*
X347979Y373379D01*
G37*
%LPD*%
%LPC*%
G36*
X474979Y373379D02*
X474979Y373379D01*
X474979Y386353D01*
X475625Y386024D01*
X477016Y385013D01*
X478231Y383798D01*
X479242Y382407D01*
X480023Y380875D01*
X480554Y379240D01*
X480823Y377542D01*
X480823Y373379D01*
X474979Y373379D01*
G37*
%LPD*%
%LPC*%
G36*
X601979Y363221D02*
X601979Y363221D01*
X607823Y363221D01*
X607823Y359058D01*
X607554Y357360D01*
X607478Y357127D01*
X607478Y357126D01*
X607023Y355725D01*
X606242Y354193D01*
X605231Y352802D01*
X604016Y351587D01*
X602625Y350576D01*
X601979Y350247D01*
X601979Y363221D01*
G37*
%LPD*%
%LPC*%
G36*
X347979Y363221D02*
X347979Y363221D01*
X353823Y363221D01*
X353823Y359058D01*
X353554Y357360D01*
X353478Y357127D01*
X353478Y357126D01*
X353023Y355725D01*
X352242Y354193D01*
X351231Y352802D01*
X350016Y351587D01*
X348625Y350576D01*
X347979Y350247D01*
X347979Y363221D01*
G37*
%LPD*%
%LPC*%
G36*
X474979Y363221D02*
X474979Y363221D01*
X480823Y363221D01*
X480823Y359058D01*
X480554Y357360D01*
X480478Y357127D01*
X480478Y357126D01*
X480023Y355725D01*
X479242Y354193D01*
X478231Y352802D01*
X477016Y351587D01*
X475625Y350576D01*
X474979Y350247D01*
X474979Y363221D01*
G37*
%LPD*%
%LPC*%
G36*
X77469Y262889D02*
X77469Y262889D01*
X77469Y270101D01*
X82390Y270101D01*
X82881Y270003D01*
X83343Y269812D01*
X83760Y269533D01*
X84113Y269180D01*
X84392Y268763D01*
X84583Y268301D01*
X84681Y267810D01*
X84681Y262889D01*
X77469Y262889D01*
G37*
%LPD*%
%LPC*%
G36*
X77469Y245519D02*
X77469Y245519D01*
X77469Y252731D01*
X84681Y252731D01*
X84681Y247810D01*
X84583Y247319D01*
X84392Y246857D01*
X84113Y246440D01*
X83760Y246087D01*
X83343Y245808D01*
X82881Y245617D01*
X82390Y245519D01*
X77469Y245519D01*
G37*
%LPD*%
%LPC*%
G36*
X60099Y262889D02*
X60099Y262889D01*
X60099Y267810D01*
X60197Y268301D01*
X60388Y268763D01*
X60667Y269180D01*
X61020Y269533D01*
X61437Y269812D01*
X61899Y270003D01*
X62390Y270101D01*
X67311Y270101D01*
X67311Y262889D01*
X60099Y262889D01*
G37*
%LPD*%
%LPC*%
G36*
X62390Y245519D02*
X62390Y245519D01*
X61899Y245617D01*
X61437Y245808D01*
X61020Y246087D01*
X60667Y246440D01*
X60388Y246857D01*
X60197Y247319D01*
X60099Y247810D01*
X60099Y252731D01*
X67311Y252731D01*
X67311Y245519D01*
X62390Y245519D01*
G37*
%LPD*%
D10*
X50800Y449580D02*
X50800Y464820D01*
X76200Y464820D02*
X76200Y449580D01*
D11*
X381000Y292100D03*
X304800Y292100D03*
X381000Y241300D03*
X304800Y241300D03*
X278130Y278130D03*
X201930Y278130D03*
D12*
X72390Y257810D03*
D13*
X72390Y181610D03*
D14*
X132600Y86200D02*
X132600Y66200D01*
X71600Y66200D02*
X71600Y86200D01*
X91600Y28200D02*
X111600Y28200D01*
D10*
X38100Y335280D02*
X38100Y350520D01*
X63500Y350520D02*
X63500Y335280D01*
X88900Y335280D02*
X88900Y350520D01*
X114300Y350520D02*
X114300Y335280D01*
X50800Y398780D02*
X50800Y414020D01*
X76200Y414020D02*
X76200Y398780D01*
D15*
X292100Y376682D02*
X292100Y359918D01*
X317500Y359918D02*
X317500Y376682D01*
X342900Y376682D02*
X342900Y359918D01*
X419100Y359918D02*
X419100Y376682D01*
X444500Y376682D02*
X444500Y359918D01*
X469900Y359918D02*
X469900Y376682D01*
X546100Y376682D02*
X546100Y359918D01*
X571500Y359918D02*
X571500Y376682D01*
X596900Y376682D02*
X596900Y359918D01*
D16*
X177800Y215900D03*
X254000Y215900D03*
D17*
X381000Y152400D03*
X304800Y152400D03*
D16*
X304800Y114300D03*
X381000Y114300D03*
D17*
X254000Y177800D03*
X177800Y177800D03*
D16*
X177800Y139700D03*
X254000Y139700D03*
D17*
X254000Y101600D03*
X177800Y101600D03*
D16*
X177800Y63500D03*
X254000Y63500D03*
D18*
X228600Y342900D03*
X228600Y469900D03*
D16*
X406400Y292100D03*
X533400Y292100D03*
X406400Y241300D03*
X533400Y241300D03*
X406400Y190500D03*
X533400Y190500D03*
D19*
X254000Y177800D02*
X254000Y215900D01*
X177800Y177800D02*
X177800Y139700D01*
X254000Y139700D02*
X254000Y101600D01*
X177800Y101600D02*
X177800Y63500D01*
D20*
X50800Y406400D02*
X50800Y457200D01*
X76200Y457200D02*
X88900Y469900D01*
X228600Y469900D01*
X381000Y292100D02*
X406400Y292100D01*
X406400Y241300D02*
X381000Y241300D01*
X278130Y278130D02*
X278130Y190500D01*
X406400Y190500D01*
X533400Y190500D02*
X558800Y190500D01*
X558800Y330200D01*
X546100Y342900D01*
X546100Y368300D01*
D21*
X132600Y215380D02*
X132600Y76200D01*
D19*
X132600Y215380D02*
X130810Y217170D01*
X177800Y217170D01*
X177800Y215900D01*
X254000Y63500D02*
X266700Y50800D01*
X444500Y50800D01*
X444500Y368300D01*
X132600Y246900D02*
X132600Y215380D01*
X132600Y246900D02*
X203200Y317500D01*
X317500Y317500D01*
X317500Y368300D01*
D22*
X72390Y76990D02*
X71600Y76200D01*
D19*
X72390Y76990D02*
X72390Y181610D01*
X304800Y152400D02*
X304800Y114300D01*
M02*
