M48
;GenerationSoftware,Autodesk,EAGLE,9.6.2*%
;CreationDate,2023-04-26T02:50:04Z*%
FMAT,2
ICI,OFF
METRIC,TZ,000.000
T7C0.813
T6C1.000
T5C1.016
T4C1.100
T3C1.118
T2C1.300
T1C3.302
%
G90
M71
T1
X31750Y54356
X44450Y54356
X57150Y54356
T2
X7239Y18161
X7239Y25781
T3
X44450Y36830
X57150Y36830
X59690Y36830
X54610Y36830
X46990Y36830
X41910Y36830
X34290Y36830
X31750Y36830
X29210Y36830
T4
X30480Y29210
X20193Y27813
X38100Y29210
X27813Y27813
X30480Y24130
X38100Y24130
T5
X3810Y34290
X6350Y34290
X8890Y34290
X11430Y34290
X5080Y40640
X7620Y40640
X5080Y45720
X7620Y45720
T6
X10160Y2820
X13260Y7620
X7160Y7620
T7
X17780Y21590
X25400Y21590
X38100Y15240
X30480Y15240
X30480Y11430
X38100Y11430
X25400Y17780
X17780Y17780
X17780Y13970
X25400Y13970
X25400Y10160
X17780Y10160
X17780Y6350
X25400Y6350
X22860Y34290
X22860Y46990
X40640Y29210
X53340Y29210
X40640Y24130
X53340Y24130
X40640Y19050
X53340Y19050
M30